<svg width="13" height="18" viewBox="0 0 13 18" fill="none" xmlns="http://www.w3.org/2000/svg">
<path d="M11.9464 0.589722H0.929316C0.701787 0.589722 0.51709 0.776724 0.51709 1.00746V16.6529C0.516768 16.9663 0.689549 17.2535 0.964581 17.3968C1.23977 17.5399 1.57084 17.5149 1.82188 17.332L6.43785 13.9789L11.054 17.3319C11.3052 17.5144 11.6359 17.5393 11.911 17.3961C12.1858 17.253 12.3588 16.966 12.3588 16.6529V1.00746C12.3588 0.776724 12.1741 0.589722 11.9464 0.589722ZM11.5342 16.6527L6.67826 13.1253C6.53462 13.021 6.34139 13.021 6.19792 13.1253L1.34186 16.6529V1.4252H11.5342V16.6527Z" fill="white"/>
</svg>
