<svg width="21" height="21" viewBox="0 0 21 21" fill="none" xmlns="http://www.w3.org/2000/svg">
<path d="M9.62323 0.0393677C4.83095 0.0393677 0.931885 3.99058 0.931885 8.84694C0.931885 13.7036 4.83095 17.6545 9.62323 17.6545C14.4158 17.6545 18.3146 13.7036 18.3146 8.84694C18.3146 3.99058 14.4158 0.0393677 9.62323 0.0393677ZM9.62323 16.0285C5.71561 16.0285 2.53644 12.8069 2.53644 8.84698C2.53644 4.8871 5.71561 1.66538 9.62323 1.66538C13.5309 1.66538 16.71 4.88706 16.71 8.84694C16.71 12.8068 13.5309 16.0285 9.62323 16.0285Z" fill="#AEAEAE"/>
<path d="M20.433 18.6515L15.8333 13.9903C15.5198 13.6727 15.0122 13.6727 14.6988 13.9903C14.3854 14.3076 14.3854 14.8226 14.6988 15.1399L19.2986 19.8011C19.4553 19.9599 19.6604 20.0393 19.8658 20.0393C20.0709 20.0393 20.2763 19.9599 20.433 19.8011C20.7464 19.4838 20.7464 18.9689 20.433 18.6515Z" fill="#AEAEAE"/>
</svg>
