<?xml version="1.0" standalone="no"?>
<!DOCTYPE svg PUBLIC "-//W3C//DTD SVG 1.1//EN" "http://www.w3.org/Graphics/SVG/1.1/DTD/svg11.dtd" >
<svg>
<metadata>
Created by FontForge 20090622 at Fri Feb 14 16:11:19 2020
 By deploy user
Copyright (c) &#208;&#144;&#208;&#189;&#208;&#176;&#209;&#130;&#208;&#190;&#208;&#187;&#208;&#184;&#208;&#185;, 2004. All rights reserved.
</metadata>
<defs>
<font id="Pompadur" horiz-adv-x="1036" >
  <font-face 
    font-family="Pompadur"
    font-weight="400"
    font-stretch="normal"
    units-per-em="2048"
    panose-1="2 11 6 3 5 3 2 2 2 4"
    ascent="1638"
    descent="-410"
    x-height="846"
    cap-height="1913"
    bbox="-292.315 -529.446 3767.56 2190"
    underline-thickness="0"
    underline-position="0"
    unicode-range="U+0020-U+2116"
  />
<missing-glyph horiz-adv-x="508" 
 />
    <glyph glyph-name=".notdef" horiz-adv-x="508" 
 />
    <glyph glyph-name=".null" horiz-adv-x="0" 
 />
    <glyph glyph-name="nonmarkingreturn" horiz-adv-x="508" 
 />
    <glyph glyph-name="space" unicode=" " horiz-adv-x="508" 
 />
    <glyph glyph-name="space" unicode="&#xa0;" horiz-adv-x="508" 
 />
    <glyph glyph-name="three" unicode="3" horiz-adv-x="1200" 
d="M786 709q-35 -15 -44.5 -8.5t-12.5 20.5q-5 20 49 44q104 46 207 173q32 39 62 82.5t45 89.5q32 96 12 146q-22 53 -98 66q-56 8 -117 -7t-94 -36l-74.5 -49t-54.5 -55q-57 -93 -82 -100q-40 -12 -52 35t28 79l81.5 66t112.5 72q78 35 177 46t180 -28q66 -33 101 -98
t11 -155q-18 -64 -69 -123t-117 -107q-97 -71 -205 -112q129 -20 189 -132.5t-5 -266.5q-72 -172 -250 -273t-383 -108q-55 -2 -134 7t-152 62q-33 24 -1 49.5t67 -4.5q67 -60 120.5 -63t110.5 -3q148 8 264 102.5t188 240.5q71 146 56.5 247t-116.5 101z" />
    <glyph glyph-name="four" unicode="4" horiz-adv-x="1150" 
d="M439 69l92 164.5l91 161.5l-63.5 8t-62.5 7q-96 7 -190 9.5t-178 -9.5q-34 -6 -38 13t4 27q195 189 360.5 406t267.5 502q11 31 27 34q36 6 74.5 9t74.5 -6q44 -11 30 -37q-138 -254 -316 -462.5t-369 -391.5q-6 -6 -4 -18.5t11 -11.5q114 15 217.5 9.5t196.5 -15.5
l199.5 337.5t206.5 316.5q6 9 29.5 7.5t17.5 -10.5q-183 -329 -332 -664q63 -6 122.5 -7.5t115.5 9.5q13 2 23 -19.5t7 -34.5q-7 -29 -51 -57q-9 -7 -40 -4q-54 6 -107 15l-106 18l-72.5 -171l-69.5 -172q-12 -33 -50 -31l-118 14q-18 1 -13.5 20t13.5 34z" />
    <glyph glyph-name="five" unicode="5" horiz-adv-x="1150" 
d="M802 817q-65 0 -142 -27.5t-152 -111.5h-67q12 13 22 27l3 15l337 670q52 -36 124.5 -61.5t149.5 -25.5q146 0 257 72q21 14 26 1t-4 -32q-44 -84 -143.5 -133t-224.5 -49q-112 0 -211 39l-210 -413q120 80 226 80q156 0 230.5 -131.5t3.5 -315.5q-72 -184 -270.5 -302.5
t-357.5 -125.5q-55 -3 -133.5 6.5t-151.5 67.5q-33 26 -1 53.5t67 -4.5q67 -64 121.5 -68t111.5 -4q102 0 234 108t204 265q71 156 62 278t-111 122z" />
    <glyph glyph-name="six" unicode="6" horiz-adv-x="1061" 
d="M648 831q-103 0 -221.5 -85.5t-190.5 -297.5q-73 -212 -36 -298.5t140 -86.5q102 0 213.5 112.5t165.5 269.5q52 157 41.5 271.5t-112.5 114.5zM1053 1438q14 1 11.5 -17t-8.5 -20l-120.5 -42.5t-118.5 -59.5q-241 -163 -408 -459q-11 -18 -5 -25.5t25 4.5q108 72 197 72
q156 0 218.5 -133.5t12.5 -317.5t-201.5 -315.5t-307.5 -131.5q-112 0 -183.5 78t-86.5 197q-10 81 10 176.5t47 168.5q122 325 388 562.5t530 262.5z" />
    <glyph glyph-name="seven" unicode="7" horiz-adv-x="872" 
d="M120 46q73 384 325 657.5t436 493.5q-86 -43 -160 -46q-58 -2 -107 18l-94 38l-87.5 35t-83.5 23q-105 13 -178 -80q-52 -66 -34 -108t-24 -42q-48 0 -48.5 39t24.5 84q17 30 36 59.5t52 55.5q101 79 212 85q88 3 137 -15.5t114 -39.5q50 -17 113.5 -33.5t105.5 -14.5
q30 0 59.5 24t57.5 37q27 13 48 1q6 -4 7 -6q14 -2 12 -7q-96 -132 -213.5 -261.5t-224 -280t-186 -333t-98.5 -420.5q-2 -10 -25 -26t-34 -15l-118 13q-18 3 -22.5 25.5t-1.5 39.5z" />
    <glyph glyph-name="eight" unicode="8" 
d="M850 1375q135 0 213.5 -91t53.5 -223q-21 -103 -131.5 -177.5t-236.5 -122.5q80 -69 134.5 -173.5t35.5 -197.5q-34 -164 -183 -279t-325 -115q-146 0 -240.5 71t-95.5 191q-1 98 38 157t105 121q75 71 165.5 117.5t180.5 100.5q-55 54 -90.5 121t-13.5 178
q26 132 127.5 227t262.5 95zM606 709q-114 -54 -245.5 -150.5t-169.5 -231.5q-36 -127 26 -205t188 -78q125 0 229.5 92t128.5 222q24 129 -28.5 204.5t-128.5 146.5zM819 1310q-141 -3 -199 -103t-46 -197q7 -69 47 -113.5t81 -95.5q126 51 195.5 98.5t86.5 153.5
q15 106 -33 181.5t-132 75.5z" />
    <glyph glyph-name="nine" unicode="9" 
d="M469 483q102 0 220 85t191 297q73 211 36 298t-139 87q-103 0 -215 -113t-164 -269q-53 -157 -42.5 -271t113.5 -114zM63 -124q-15 -1 -12 17t9 20l120 43t119 58q120 81 224.5 200t184.5 259q28 52 -21 21q-112 -72 -197 -72q-156 0 -218.5 133.5t-12.5 317.5
q49 184 201 316.5t308 132.5q112 0 183.5 -79.5t86.5 -197.5q10 -81 -10 -176.5t-47 -167.5q-122 -327 -388 -563.5t-530 -261.5z" />
    <glyph glyph-name="semicolon" unicode=";" horiz-adv-x="609" 
d="M485 781q95 0 78 -97q-20 -96 -116 -96q-97 0 -77 96q17 97 115 97zM192 161q98 0 77 -97q-24 -111 -103.5 -191t-130.5 -89q-10 -1 -14 11t3 21q19 29 71 92t27 66q-62 9 -46 90q20 97 116 97z" />
    <glyph glyph-name="colon" unicode=":" horiz-adv-x="610" 
d="M487 798q94 0 77 -97q-20 -96 -116 -96q-97 0 -77 96q17 97 116 97zM193 178q96 0 78 -97q-20 -96 -116 -96q-97 0 -78 96q20 97 116 97z" />
    <glyph glyph-name="comma" unicode="," horiz-adv-x="320" 
d="M207 178q98 0 77 -97q-25 -111 -104 -191t-130 -89q-10 -1 -14 11t2 21q20 29 72 92t27 66q-62 9 -46 90q20 97 116 97z" />
    <glyph glyph-name="period" unicode="." horiz-adv-x="310" 
d="M201 203q95 0 78 -97q-20 -96 -116 -96q-97 0 -78 96q19 97 116 97z" />
    <glyph glyph-name="exclam" unicode="!" horiz-adv-x="1012" 
d="M213 195q96 0 78 -97q-21 -97 -116 -97q-98 0 -77 97q18 97 115 97zM336 328q-12 -20 -34.5 -13.5t-8.5 34.5q163 330 275 597l247 563q8 18 38.5 24.5t49.5 0.5q18 -6 39.5 -21.5t13.5 -32.5l-279 -554t-341 -598z" />
    <glyph glyph-name="question" unicode="?" horiz-adv-x="1042" 
d="M211 195q97 0 77 -97q-19 -97 -115 -97q-97 0 -78 97q20 97 116 97zM256 1341q86 125 271 206q132 56 236 43q85 -11 136 -78q94 -127 15 -335q-35 -91 -106.5 -171.5t-167.5 -170.5q-84 -80 -198.5 -151.5t-168.5 -176.5q-26 -49 -33 -121q-9 -91 56 -107q31 -9 84.5 0
t108.5 63q26 26 51.5 5t-0.5 -44q-120 -112 -255.5 -66t-118.5 215q10 111 72 198q80 114 192 197.5t162 128.5q82 74 171 179.5t107 228.5q22 160 -155 155q-84 -4 -154 -28q-119 -41 -211 -137q-58 -63 -72 -119q-6 -23 -11.5 -39t-29.5 -28q-45 -20 -27 57q10 45 46 96z
" />
    <glyph glyph-name="hyphen" unicode="-" horiz-adv-x="665" 
d="M119 634q135 57 260 24.5t255 36.5l-15 -84q-135 -70 -255.5 -43.5t-268.5 -24.5z" />
    <glyph glyph-name="parenleft" unicode="(" horiz-adv-x="1477" 
d="M2008 2185q-303 -243 -588.5 -668t-469.5 -936q-167 -467 -199 -870q-75 200 -68.5 471t107.5 582q168 519 513 915t705 506z" />
    <glyph glyph-name="parenright" unicode=")" horiz-adv-x="1425" 
d="M27 -288q302 243 587.5 667t469.5 936q165 460 199 871q75 -200 68 -472t-106 -582q-168 -519 -513 -914.5t-705 -505.5z" />
    <glyph glyph-name="percent" unicode="%" horiz-adv-x="1573" 
d="M1291 746q-88 0 -202 -142.5t-177 -286.5t-62 -216t90 -72q87 0 185.5 124.5t161.5 268.5q63 143 77 233.5t-73 90.5zM379 37l688 1339h83l-688 -1339h-83zM634 1348q-88 0 -202 -143t-177 -286q-63 -144 -62 -216t90 -72q87 0 186 124t162 268t76.5 234.5t-73.5 90.5z
M623 1403q133 0 176 -94.5t-20 -262.5q-64 -168 -214 -316.5t-283 -148.5q-134 0 -178 105.5t20 274.5q73 191 217 305q67 53 141.5 95t140.5 42zM1279 802q134 0 177 -94.5t-20 -262.5q-64 -169 -214 -316.5t-283 -147.5q-134 0 -178 105t20 273q73 192 217 305
q67 53 141.5 95.5t139.5 42.5z" />
    <glyph glyph-name="I" unicode="I" horiz-adv-x="1212" 
d="M62 9v54h99l685 1325h-84v55h393v-55h-85l-684 -1325h69v-54h-393z" />
    <glyph glyph-name="V" unicode="V" horiz-adv-x="1518" 
d="M373 1388v55h377v-55h-36q-29 0 -52 -26t-28 -53l-209 -1037l739 1018q15 19 11.5 58.5t-27.5 39.5h-32v55h330v-55h-37q-49 0 -91 -36.5t-71 -75.5l-930 -1280h-69.5h-68.5l270 1338q3 16 -10.5 35t-30.5 19h-35z" />
    <glyph glyph-name="X" unicode="X" horiz-adv-x="1736" 
d="M758 9v54h107l-69 548l-459 -489q-11 -12 -4 -35.5t22 -23.5h37v-54h-334v54h60q70 0 124 57l543 578l-86 690h-106v55h394v-55h-99l65 -511l396 421q17 18 0 54t-41 36h-47v55h393v-55h-64q-45 0 -82.5 -30.5t-67.5 -62.5l-476 -506l92 -726h96v-54h-394z" />
    <glyph glyph-name="afii10017" unicode="&#x410;" horiz-adv-x="2063" 
d="M445 433q-153 67 -203.5 182.5t-53.5 273.5q-5 195 79 382t223 322q154 148 397 248.5t455 106.5q174 6 365.5 -18.5t339.5 -129.5q59 35 137 66q121 45 256 63q20 2 23 -17q1 -20 -18 -23q-139 -19 -247 -61q-61 -24 -116 -54q129 -112 157 -281q14 -89 10 -184
q-5 -90 -28 -174q-27 -93 -69.5 -179l-84.5 -172q-33 -71 -70 -138l-73 -129l-98 -179t-59 -149q-27 -122 21 -143q59 -28 233 60q18 10 27 -9q9 -17 -9 -27q-191 -94 -267 -61q-42 18 -71.5 83t-2.5 191q24 111 63.5 213.5t119.5 257.5q4 8 14 26h-488
q-124 -240 -279.5 -434t-378.5 -280q-127 -49 -282 -58t-332 31q-8 1 -21 12.5t-9 26.5q3 19 24 15q354 -83 586 6q119 45 203.5 126.5t156.5 186.5q59 86 106.5 179l92.5 186l87.5 174l94.5 175l91 167.5t95 154.5q57 80 134 145.5l154 126.5q37 30 81 58
q-141 93 -323.5 114t-344.5 16q-204 -6 -440.5 -103.5t-384.5 -240.5q-133 -129 -213.5 -308t-75.5 -366q3 -147 56.5 -249.5t190.5 -165.5q26 -12 20 -26q-6 -15 -25.5 -17t-25.5 1zM1916 820l143 272.5t98 253.5q21 117 3 222t-114 184q-49 -30 -91 -63
q-178 -141 -284.5 -366l-215.5 -447q-7 -15 -14.5 -29t-13.5 -27h489z" />
    <glyph glyph-name="afii10018" unicode="&#x411;" horiz-adv-x="2220" 
d="M1932 1631q38 21 44.5 7t-17.5 -41q-80 -48 -112.5 -83.5t-83.5 -101.5q-60 -78 -104.5 -167.5t-81.5 -185.5q-3 -9 -14 -46.5t22 1.5q46 56 101.5 103.5t116.5 65.5q135 40 228 -12t141 -153t51 -227.5t-40 -233.5q-96 -235 -321 -420.5t-482 -160.5q-82 9 -133 27
q-43 18 -22 45t43 23q24 -6 49 -27t83 -21q98 0 176 35t141 85q90 73 153 174.5t113 221.5q45 111 77.5 235.5t14.5 216.5q-13 63 -99.5 130.5t-226.5 -18.5q-71 -44 -165 -166q-85 -113 -133.5 -228t-137.5 -238q-66 -102 -155 -190.5t-260 -185.5q-79 -45 -199.5 -66
t-239 -26t-212.5 1t-119 18q-64 30 -25 49.5t57 8.5q29 -18 55 -24t86 -11q129 -10 310 16t282 104q198 153 287.5 345l188.5 408q116 255 217.5 417.5t345.5 295.5zM575 403q-63 -6 -104 6t-86 42q-145 97 -176.5 280t7.5 363q18 84 51.5 159t67.5 135q64 117 151 197
q83 77 177.5 135.5t178.5 91.5q141 55 305 76t316 6q48 -5 131 -16.5t174 -28.5q150 -30 315 -58t309 -16q137 11 211 62q10 7 24.5 18.5t30.5 2.5q25 -17 3 -40q-45 -48 -119 -78t-162 -45q-170 -31 -360.5 -14t-297.5 35q-161 25 -259.5 51t-254.5 36q-103 6 -240 -21
t-243 -95q-223 -142 -335 -305q-60 -86 -99.5 -192t-51.5 -248q-9 -104 26 -229t115 -196q73 -67 186 -50q27 2 32 -26q4 -33 -23 -38z" />
    <glyph glyph-name="afii10019" unicode="&#x412;" horiz-adv-x="2031" 
d="M1237 32q94 -1 183.5 14.5t182.5 60.5q65 30 125.5 122.5t104.5 198.5q38 93 64 186t11 171q-18 87 -89 132t-192 22q-9 -2 -13.5 11t-2.5 22t18 21t26 10q135 -27 255.5 61t180.5 207q66 129 74 229.5t-61 192.5q-18 22 -39.5 37l-48.5 34q-144 -98 -240 -277
q-123 -227 -213 -481t-232 -487q-66 -107 -185 -220t-290 -215q-79 -47 -194.5 -68t-228 -25.5t-201.5 3t-113 19.5q-65 31 -25.5 51.5t57.5 9.5q41 -29 140 -36q129 -12 310.5 16t281.5 109q198 161 309.5 401t201.5 471q68 176 179.5 358.5t279.5 317.5q53 41 122 80
q-95 56 -224 88q-148 35 -325 32q-201 -3 -389.5 -58t-317.5 -135q-148 -91 -253 -201q-108 -111 -162.5 -241.5t-76.5 -310.5q-9 -72 -0.5 -168.5t42.5 -180.5t97 -137t164 -38q28 2 31 -26q3 -33 -25 -38q-103 -11 -176 48.5t-117.5 150.5t-61.5 195.5t-7 184.5
q23 177 77 315q76 200 226 341t339 225q256 114 545 125q111 4 221.5 -5.5t207.5 -38.5q61 -19 123.5 -42.5t118.5 -53.5q91 47 184 80t156 39q105 9 101 -32.5t-39 -35.5q-39 -2 -138 -12.5t-153 -29.5q-34 -12 -72 -33q40 -27 71 -57q121 -122 147.5 -288.5t-110.5 -305.5
q-54 -55 -153.5 -108.5t-205.5 -70.5q102 -6 181 -188.5t-2 -380.5q-48 -120 -165 -245.5t-414 -167.5q-94 -12 -200 -2q-67 7 -112 23q-48 18 -34 41.5t49 29.5q21 2 43 -22t71 -24z" />
    <glyph glyph-name="afii10020" unicode="&#x413;" horiz-adv-x="1433" 
d="M2002 1699q-73 -49 -144.5 -110t-116.5 -122q-153 -207 -227 -482.5t-216 -508.5q-66 -107 -158.5 -198t-263.5 -193q-79 -47 -199.5 -68.5t-239 -27.5t-212.5 1t-119 18q-64 31 -24.5 52t56.5 10q29 -21 55 -26.5t86 -10.5q129 -12 310 16t282 110q198 160 298.5 413
l190.5 484q98 252 224 389.5t349 254.5q-123 4 -273 27q-160 26 -321.5 63.5t-317.5 47.5q-156 9 -289.5 -52.5t-247.5 -157.5q-153 -128 -228 -292q-57 -121 -80 -269.5t7 -280.5q35 -160 126 -241q73 -67 186 -50q27 2 32 -26q5 -35 -23 -37q-64 -7 -105 5t-86 42
q-102 69 -148 225.5t-37 269.5q29 377 273 638q147 158 350 238q140 55 314 71t327 1q210 -21 371 -69.5t341 -60.5q119 -7 238 10q81 10 137 74q9 9 24 18.5t31 0.5q25 -15 3 -39q-98 -104 -239 -129q-146 -28 -296 -28z" />
    <glyph glyph-name="afii10021" unicode="&#x414;" horiz-adv-x="2031" 
d="M252 137q113 12 242 -6q67 -10 162 -28q72 27 122 66q198 161 294 410.5l186 480.5q68 176 190 356.5t296 304.5l49 34q-40 25 -65 39q-111 62 -266.5 82t-316 8t-305.5 -51.5t-235 -94.5q-72 -45 -134 -105l-110 -110q-203 -210 -247 -565q-11 -84 -3 -171.5t44 -163.5
q72 -153 271 -124q27 2 30 -26q3 -33 -24 -38q-133 -13 -214 44q-35 24 -61.5 50t-43.5 72q-35 91 -52 174t-4 182q10 86 28 167.5t53 162.5q34 79 99 168t146 170t170 146t170 97q169 66 422.5 78t483.5 -57q121 -37 219 -98q80 52 168.5 96t160.5 51q105 9 94.5 -38.5
t-45.5 -41.5q-39 -3 -86 -2.5t-102 -19.5q-76 -28 -147 -74q179 -134 235.5 -333.5t26.5 -415.5q-21 -143 -71.5 -283.5t-120.5 -265.5q-144 -252 -306 -350t-340 -122q-111 -15 -284 11t-347 55q-95 -37 -215 -50t-225 -13q-140 2 -147 62q-8 61 155 80zM743 86
q183 -36 378.5 -48t385.5 79q192 93 322.5 359.5t191.5 522.5q70 300 4 486q-48 134 -188 239q-132 -102 -204 -235q-65 -119 -117.5 -261.5t-111.5 -279.5q-54 -126 -108.5 -239t-122.5 -224q-66 -107 -158 -200t-263 -195q-3 -1 -5 -2.5t-4 -1.5zM569 76
q-79 11 -149.5 16.5t-126.5 2.5q-31 -2 -61 -9t-35 -18q-3 -7 2.5 -17t50.5 -10q72 -2 156 6t163 29z" />
    <glyph glyph-name="afii10022" unicode="&#x415;" horiz-adv-x="1804" 
d="M978 245q15 151 99 280.5t151 198.5q69 71 180 129t195 55q126 -6 178 -67.5t48 -152.5q-6 -104 -71.5 -228t-167.5 -231q-119 -125 -267 -189t-293 -76q-96 -7 -185 17t-143 86q-90 103 -116.5 215t-20.5 222q6 126 45.5 242.5t124.5 221.5q-119 4 -215 28
q-206 49 -339.5 176.5t-133.5 289.5q0 203 203.5 347.5t491.5 144.5q229 0 393 -86q28 -15 12 -37t-41 -9q-78 38 -170 62t-194 24q-253 0 -432 -129t-179 -309q0 -142 112.5 -254t288.5 -158q97 -26 260 -27q175 179 499 304q-14 15 -41 69.5t-19 131t77 167.5t248 181
q58 29 142.5 51t175.5 25q135 3 207.5 -74t48.5 -206q-38 -198 -250 -367.5t-566 -276.5q-159 -48 -358 -64q-109 -120 -140 -197l-51.5 -134t-41.5 -194q-9 -109 2.5 -223t89.5 -163q69 -45 174 -46q84 -2 162.5 24t141.5 54q31 13 170 125t211 223q20 30 44.5 97t26.5 135
t-30.5 119.5t-125.5 51.5q-60 0 -132.5 -29.5t-129.5 -70.5q-108 -79 -188 -223.5t-98 -286.5q-7 -45 -33 -39q-13 1 -22.5 19.5t-7.5 30.5zM1800 1897q-131 -32 -249 -111q-143 -96 -165 -234q-14 -87 35.5 -137t217.5 8q27 9 18 -19t-39 -36q-95 -27 -184 -58.5
t-167 -79.5q-135 -85 -244 -190q204 17 308 50q175 52 321 134.5t251 181.5q81 77 148 198t14 218q-42 75 -116.5 83.5t-148.5 -8.5z" />
    <glyph glyph-name="afii10024" unicode="&#x416;" horiz-adv-x="2824" 
d="M2786 88l-55.5 -29.5l-52.5 -28.5q-180 -94 -252 -56q-39 20 -56 78q-39 132 29.5 367t120.5 339q79 159 176.5 331t229.5 334q55 68 38.5 62t-62.5 -49q-78 -73 -157 -161q-198 -221 -405 -502t-383 -458q-114 -117 -223 -189q-45 -30 -78.5 -49.5t-72.5 -55.5
q-14 -14 -27 2q-23 33 -7 47q70 72 133.5 173.5t120.5 215.5q69 138 117.5 275t102.5 261q57 132 130 254.5t168 263.5q66 96 106 149q61 81 37 70q-11 -4 -31.5 -21l-39.5 -33q-63 -56 -118 -114q-177 -188 -381 -466t-392 -494q-116 -133 -243.5 -231t-271.5 -191
q-222 -144 -467.5 -177t-483.5 69q-28 10 -11 43q13 26 38 15q63 -31 159 -65t211 -22q266 25 511 213q150 115 252.5 262t186.5 323q78 164 132.5 355t33.5 343q-21 145 -133.5 245.5t-258.5 109.5q-78 4 -171 -22.5t-204 -97.5q-169 -108 -280.5 -274.5t-150.5 -361.5
q-25 -124 -15.5 -242.5t70.5 -197.5q40 -54 102.5 -102t161.5 -33q27 2 32 -26q4 -33 -23 -38q-161 -17 -253 65.5t-129.5 211t-27 276t54.5 261.5q81 211 245 367q142 135 328 212q111 45 228 57.5t224 -29.5q100 -39 183.5 -128.5t121.5 -199.5q45 -138 26.5 -297
t-71.5 -327q-25 -79 -65 -163q-40 -81 -91 -160q-13 -20 -11.5 -32t24.5 14q192 219 393.5 500t372.5 459q90 93 178.5 161t160.5 93q1 -1 2 -1l10.5 12.5l10.5 12.5q9 10 17 1t10 -17q2 -21 -4 -30l-87 -122t-139 -244q-55 -114 -102 -228l-94 -228q-54 -129 -116 -246
t-137 -239q-91 -146 -168 -256q-37 -51 -15 -46t53 33q43 37 101 96q182 187 391 465t403 494q84 94 210 210t268 213q74 51 152.5 96.5t146.5 63.5q55 15 111 26t92 5q42 -9 65 -34t12 -45q-22 -39 -71 -2q-42 29 -104 27q-77 -4 -182.5 -62t-174.5 -130q-63 -65 -110 -137
l-101 -150q-78 -111 -136 -222.5l-113 -227.5l-132.5 -283.5t-118.5 -283.5q-42 -107 -52.5 -200t13.5 -127q18 -27 55 -21.5t122 51.5l54.5 29.5l54.5 28.5q18 8 27 -9q9 -19 -9 -27z" />
    <glyph glyph-name="afii10025" unicode="&#x417;" horiz-adv-x="1679" 
d="M116 90q-61 42 -16 79q30 25 59 -3q24 -23 46 -47.5t55 -39.5q77 -38 217 -46q97 -6 196 4t194 28q103 20 200.5 58t180.5 104q103 81 171.5 199t98.5 245q37 159 -21 258t-217 99q-39 -1 -36.5 31.5t32.5 30.5q103 -8 253 34.5t243 141.5q57 61 70.5 166.5t-16.5 197.5
q-27 83 -89.5 132t-143.5 78q-217 76 -443 15q-126 -33 -252 -102q-212 -117 -331 -262q-104 -127 -167.5 -279.5t-63.5 -297.5q0 -189 110 -311q46 -54 117 -86t185 -17q32 2 37 -26q5 -35 -27 -37q-233 -21 -358 126q-112 130 -114 332.5t65 352.5q100 223 293 394
q187 164 425 246q111 37 263.5 43.5t287.5 -34.5q117 -36 207 -108t134 -186q34 -90 23 -204t-103 -195q-50 -45 -119 -73t-144 -46q-35 -9 -85 -18t-84 -9q64 -29 104 -66q145 -139 131 -323.5t-138 -330.5q-127 -150 -316 -234q-152 -68 -322 -92q-78 -11 -178 -19
t-204 -6q-118 4 -227.5 26t-182.5 77z" />
    <glyph glyph-name="afii10026" unicode="&#x418;" horiz-adv-x="2189" 
d="M420 434q-129 -14 -220 47q-71 48 -110 140q-72 170 -56 359q13 168 73 332q66 186 170 316q126 159 341 244q142 55 314 63q88 3 171 -6q65 -6 162 -26l62.5 -13.5t62.5 -11.5q47 -9 129 -22q43 -8 97 -17t106 -1q52 7 98 39q1 1 10 13q8 11 16 9q7 5 13 13q29 34 54 20
q25 -16 4 -40q-44 -45 -91 -73l-33 -41q-114 -141 -209 -290q-128 -202 -247 -459q-75 -165 -136 -329t-96 -342q-27 -131 -20 -204q8 -77 54 -91q31 -9 68.5 4t64.5 27q102 54 189.5 120.5t175.5 141.5l66 56q7 57 27 118q21 66 55 136t61 136q62 152 137.5 288l150.5 264
q87 149 180 292t210 292q21 27 90 18.5t55 -39.5q-15 -19 -26 -41.5t-29 -44.5l-160 -251.5l-165 -268.5q-194 -326 -344 -694l-66 -149t-54 -152q-11 -42 -24.5 -87t-6.5 -83q7 -45 20 -67t67 -10q68 15 151.5 72.5t113.5 82.5q14 14 28 -3q25 -30 5 -45
q-51 -42 -157 -98.5t-138 -60.5q-99 -13 -138 38.5t-46 129.5q-9 96 -4 167q-9 -7 -16.5 -14t-15.5 -13q-90 -77 -178.5 -144.5t-193.5 -121.5q-61 -34 -88 -39q-80 -19 -139 36q-67 60 -80.5 175t-10.5 198q9 218 98 434q68 165 170 319.5t214 294.5q66 83 133.5 157
l131.5 139q-11 -4 -43 -10q-74 -14 -164 -9q-60 3 -121 13.5t-123 23.5l-197.5 42.5t-184.5 26.5q-207 12 -403 -113q-117 -75 -188 -164.5t-125 -214.5q-82 -192 -98 -391q-7 -84 5 -171.5t52 -163.5q90 -173 280 -145q27 2 32 -26q5 -35 -23 -37z" />
    <glyph glyph-name="afii10027" unicode="&#x419;" horiz-adv-x="2224" 
d="M459 408q-130 -13 -220 48q-74 50 -110 139q-73 169 -56 360q13 167 72 331q68 188 171 317q128 160 341 244q144 55 314 62q84 4 171 -5q77 -9 162 -26q54 -13 125 -25q47 -9 129 -22q43 -8 97 -17t105 -1q53 7 99 39q2 3 4.5 6t5.5 6q7 11 16 10q13 13 17 17.5t19 14
t31 0.5q26 -15 4 -39q-42 -44 -91 -74l-33 -40q-114 -141 -209 -290q-70 -109 -130.5 -223.5t-116.5 -236.5q-76 -165 -136.5 -328.5t-95.5 -342.5q-27 -130 -20 -203q6 -78 54 -91q31 -9 68.5 4t64.5 27q102 54 189.5 120t175.5 142l65 55q9 61 28 119q21 66 55 136t61 136
q62 152 137.5 288l150.5 264q87 149 180 292t210 292q21 27 90 18.5t55 -40.5q-15 -18 -26 -40.5t-29 -44.5l-160 -251.5l-165 -268.5q-193 -323 -345 -694q-32 -79 -65 -149.5t-54 -151.5q-11 -42 -24.5 -87t-6.5 -83q6 -45 19.5 -67t67.5 -10q68 15 151.5 72.5t113.5 82.5
q15 12 28 -3q25 -30 5 -45q-51 -42 -157 -97.5t-138 -60.5q-99 -13 -138 38t-46 129q-9 84 -4 167q-9 -7 -16.5 -14t-15.5 -13q-90 -78 -178.5 -145t-193.5 -122q-64 -33 -88 -37q-82 -18 -139 34q-67 60 -80.5 175t-10.5 199q8 219 98 434q68 165 169.5 319.5t213.5 294.5
q66 83 134 157l132 139q-27 -8 -43 -10q-74 -14 -164 -9q-60 3 -121 13.5t-123 23.5l-198 41.5t-184 26.5q-207 13 -403 -113q-117 -75 -188.5 -164t-124.5 -214q-82 -194 -98 -391q-7 -84 5 -171.5t52 -163.5q90 -173 280 -145q27 2 32 -26q4 -33 -23 -38zM2494 2031
q0 -75 -76.5 -124.5t-169.5 -49.5t-171 47.5t-78 122.5q0 61 67 55q52 -6 58 -49q1 -13 -11.5 -26.5t-12.5 -33.5q0 -30 48.5 -51t99.5 -21t98 23t47 53q0 15 -14 29.5t-11 27.5q3 21 28.5 35.5t40.5 16.5q12 1 34.5 -10.5t22.5 -44.5z" />
    <glyph glyph-name="afii10028" unicode="&#x41a;" horiz-adv-x="2068" 
d="M575 431q-130 -14 -220 48q-73 47 -110 139q-73 167 -56 360q13 168 73 331q66 186 170 316q127 159 342 244q137 54 313 63q154 6 333 -32q63 -14 126.5 -25.5t127.5 -21.5q43 -8 97 -16.5t105 -1.5q82 12 138 74q29 35 54 20q25 -16 4 -39q-40 -41 -84 -70
q-2 -1 -27.5 -31t-79 -79.5t-90.5 -103.5q-124 -179 -165.5 -317l-83.5 -282q119 -15 222 13q42 11 79 32t67 42q77 56 131 157l147 267.5t188 245.5q96 98 206 134q146 47 301 23q60 -11 92.5 -37t10.5 -73q-9 -16 -47 -18.5t-39 22.5q-2 16 -31.5 36t-64.5 32
q-57 18 -118 -3t-110 -50q-83 -49 -134 -114t-98 -145l-118 -206.5t-129 -188.5q-69 -81 -167 -145.5t-202 -59.5q136 -98 169 -213q28 -102 -10.5 -196.5t-79.5 -175.5q-59 -116 -80 -209.5t5 -127.5q44 -60 213 34l53 29.5l51 28.5q18 10 28 -9q9 -17 -7 -27l-104 -57
q-148 -82 -234 -68.5t-113 85.5q-49 132 -6.5 261.5t87.5 233.5l61.5 141t-35.5 199q-26 30 -82 44.5t-117 17.5q-38 -115 -88 -214q-88 -174 -161 -294.5t-228 -238.5q-111 -86 -205 -130t-236 -65q-161 -21 -312.5 -16t-184.5 22q-64 31 -24.5 51.5t56.5 9.5
q29 -20 55 -26t86 -11q129 -11 310 17t282 109q225 183 329 482t212 542q61 137 127.5 218.5l126.5 153.5q48 57 88.5 93.5l80.5 69.5q41 34 -8 25q-76 -15 -164 -8q-60 3 -121 13t-123 24l-198 41.5t-184 26.5q-205 13 -403 -113q-117 -75 -188.5 -164.5t-124.5 -213.5
q-82 -189 -98 -391q-7 -85 5 -172.5t52 -163.5q90 -172 280 -145q27 5 32 -26q5 -35 -23 -37z" />
    <glyph glyph-name="afii10029" unicode="&#x41b;" horiz-adv-x="2101" 
d="M102 54q-25 13 -11 43q14 28 38 15q128 -62 332 -48t366 139q181 139 355.5 356.5l343 446l332 436t323.5 329.5l14 10l15 11q-70 -32 -156 -46q-108 -18 -220 -11.5t-201 25.5l-214.5 46.5t-200.5 30.5q-103 6 -198.5 -11.5t-201.5 -85.5q-136 -87 -235 -198
q-190 -218 -219 -527q-9 -91 3 -189.5t56 -173.5q37 -66 104 -102t172 -21q28 2 31 -26q4 -33 -23 -38q-131 -14 -215 44q-65 42 -109 121q-44 75 -61 166t-14 186q5 173 68 335q71 185 231 333q150 139 345 216q93 36 209.5 48t224.5 1q84 -9 163.5 -31t161.5 -37
q71 -14 178 -29.5t204 -2.5q96 11 147 57q34 29 57 13q23 -19 -2 -39q72 37 132 47l61 10.5t73 -7.5q46 -25 10 -84t-56 -83l-171 -262q-145 -231 -295 -531t-239 -569q-36 -107 -49 -186.5t12 -112.5q40 -57 196 30l53 29.5l52 28.5q17 7 27 -9q9 -18 -7 -28l-54 -29
l-51 -28q-208 -115 -279.5 -47.5t-66.5 210.5t55.5 308.5t86.5 246.5q72 164 189 336.5t229 311.5q73 91 129 172.5t125 150.5q24 24 49.5 62.5t-54.5 30.5q-100 -11 -220 -98q-144 -103 -291.5 -282.5t-302 -388l-318 -422.5t-337.5 -385q-175 -172 -423 -238t-458 24z" />
    <glyph glyph-name="afii10030" unicode="&#x41c;" horiz-adv-x="2678" 
d="M719 440q-131 -14 -215 44q-36 23 -64 49.5t-47 72.5q-39 90 -60 173.5t-12 182.5q6 85 20.5 166.5t45.5 163.5q36 91 101 180.5t137 158.5q134 128 339 210q93 36 209.5 47.5t224.5 1.5q84 -9 163.5 -31.5t161.5 -36.5q71 -14 178.5 -29.5t203.5 -2.5q96 11 147 57
q34 29 57 13q24 -20 -2 -39q-90 -76 -241 -100q-108 -19 -220 -12t-201 26q-104 21 -215 46t-201 31q-102 6 -197.5 -11.5t-201.5 -85.5q-142 -90 -231 -188q-194 -211 -221 -564q-7 -84 5 -172t52 -163q78 -153 276 -124q27 2 31 -26q4 -33 -23 -38zM3156 1859q4 4 -28 -14
l-123.5 -190.5t-120.5 -191.5q-75 -123 -153.5 -268t-150.5 -298q-135 -290 -213 -534q-33 -107 -45.5 -186t14.5 -113q40 -57 195 30l104 58q17 7 27 -9q11 -19 -7 -27l-53 -29.5l-51 -28.5q-284 -159 -343 -35.5t7 365.5q50 186 132.5 364.5t180.5 344.5q70 120 130 207.5
t84 119.5q72 91 126.5 172.5t122.5 150.5q22 22 34 35q-42 -30 -94 -75.5t-114 -109.5q-95 -99 -203 -233.5t-204 -283.5l-363.5 -580.5t-296.5 -412.5q-73 -76 -119 -78q-85 -6 -117 142q-20 89 3 242t122 384q33 78 79.5 164t100.5 171q112 179 235 334l114 146.5
l112 139.5q-5 -3 -15 -11q-250 -179 -543 -564l-340 -460t-363 -429q-175 -171 -442.5 -239.5t-477.5 21.5q-26 14 -11 43q14 28 38 15q128 -62 351.5 -46t385.5 141q215 166 422 447l407 542q277 365 531 557q5 3 60 44.5t120 77.5l41 44q12 16 28 3q23 -20 10 -38
l-39 -50.5l-40 -50.5q-152 -192 -272 -391.5t-227 -419.5q-74 -152 -138 -307t-109 -298q-73 -228 -32 -282q13 -18 42 -2q28 16 61 55t56 71q129 185 297.5 460.5t392.5 587.5q115 160 235.5 297.5t213.5 219.5q152 135 217 142q16 9 28 -9q17 -32 -12 -44z" />
    <glyph glyph-name="afii10031" unicode="&#x41d;" horiz-adv-x="2175" 
d="M650 422q-123 -14 -213 48q-71 50 -107 139q-69 170 -54 360q13 171 71 331q64 188 165 317q124 160 331 244q138 55 303 62q82 4 166 -5q75 -9 157 -26q55 -14 121 -25q30 -6 61.5 -11.5l63.5 -11.5l94 -16t103 -1q77 10 133 74q30 33 52 19q26 -16 4 -39
q-42 -45 -88 -73q-51 -59 -84 -108.5l-70 -102.5q-114 -165 -168.5 -295.5t-102.5 -260.5l371 -8q56 107 122.5 215t141.5 209q84 113 179 212t197 172q74 53 152 79q94 32 171 17q42 -9 60 -38.5t9 -49.5q-9 -16 -47 -19t-39 22q-3 43 -74 41q-76 -4 -149.5 -55.5
t-136.5 -123.5q-112 -125 -213 -287q-113 -179 -212 -397l177 -3l-1 -55l-200 4q-68 -153 -124 -308t-101 -299q-70 -224 -12 -299q20 -27 57 -21.5t118 51.5l53.5 29l51.5 28q17 9 27 -9q9 -18 -7 -27l-104 -57q-148 -82 -214.5 -67t-93.5 89q-50 132 -1 362t94 334
q44 104 91 197l-363 7l-49.5 -121t-60.5 -130q-109 -214 -207.5 -347t-359.5 -289q-79 -47 -199.5 -69t-239 -27.5t-212.5 1t-119 18.5q-64 31 -24.5 51.5t56.5 9.5q29 -20 55 -26t86 -10q129 -12 309 17.5t283 107.5q212 163 311.5 373l204.5 444l-240 5l1 55l263 -5
q13 29 41 87q53 108 122 225t147 208l98.5 113.5t82.5 86.5q-23 -8 -48 -12q-71 -14 -159 -9q-57 3 -116.5 13.5t-119.5 23.5l-191.5 41.5t-178.5 26.5q-201 13 -391 -113q-114 -75 -183 -164t-120 -214q-79 -189 -95 -391q-7 -84 4.5 -171.5t50.5 -163.5q87 -173 272 -145
q26 2 31 -26q3 -33 -23 -38z" />
    <glyph glyph-name="afii10032" unicode="&#x41e;" horiz-adv-x="1496" 
d="M1169 1864q-209 -38 -428 -274t-369 -532q-160 -315 -189.5 -614.5t189.5 -402.5q70 -25 151 -25q319 -16 591.5 271t425.5 644q19 46 85 263.5t70 417.5q2 127 -39.5 216t-154.5 89q-82 0 -173.5 -55.5t-177.5 -150.5q-86 -96 -157.5 -223t-113.5 -271
q-38 -129 -43.5 -286t59.5 -280q8 -19 -9 -27q-30 -15 -43 9q-52 137 -48 296.5t46 298.5q43 148 117 279.5t162 230.5q91 101 190.5 160t190.5 59q141 0 199.5 -109.5t69.5 -234.5q15 -168 -27.5 -342t-99.5 -329q-74 -200 -198 -374t-274 -303q-156 -135 -325 -211.5
t-323 -76.5q-91 0 -165 26q-138 50 -210 184q-78 142 -78 325q-2 112 22.5 224t58.5 204q67 183 182.5 352t247.5 294q284 272 582 318q20 2 23 -17q2 -20 -17 -23z" />
    <glyph glyph-name="afii10033" unicode="&#x41f;" horiz-adv-x="2183" 
d="M553 458q-64 -7 -103.5 -2t-84.5 36q-73 47 -110 139q-73 167 -56 359q21 269 210 503q94 116 221 212.5t250 144.5q142 55 313 63q157 6 320 -11t323 -43l336.5 -54t344.5 -22q162 3 280.5 37.5t148.5 69.5q31 33 55 20q33 -21 3 -40q-62 -39 -163.5 -81t-145.5 -52
q-183 -45 -426.5 -36.5t-488.5 42.5q-180 24 -346.5 55.5t-283.5 39.5q-212 12 -398 -94t-313 -274q-83 -108 -136.5 -231t-63.5 -252q-7 -84 5 -171.5t52 -163.5q80 -156 248 -131q27 2 32 -26q3 -35 -23 -37zM2168 143q-73 -55 -104.5 -83.5t-129.5 -47.5q-74 -14 -125 28
q-74 60 -86.5 160t8 209.5t59 211.5t67.5 165q68 150 149 283.5t193 259.5q73 83 123 133t119 113q18 16 49.5 40t51.5 47q11 13 28 2q16 -12 4 -26q-21 -24 -50.5 -49t-49.5 -47q-45 -50 -78.5 -98l-72.5 -105q-63 -93 -118 -195l-110 -214q-72 -144 -135 -297.5
t-93 -291.5q-11 -50 -26.5 -112t-11.5 -99q4 -53 49 -64q99 -27 147 13.5t117 92.5q15 10 28 -3q13 -15 -2 -26zM1878 1643q5 5 18 19.5t25 5.5q15 -13 2 -27l-139 -151.5t-103 -151.5q-116 -246 -189 -461t-204 -402q-69 -99 -159 -191.5t-237 -174.5q-59 -33 -162 -64.5
t-193 -40.5q-151 -15 -274.5 -5.5t-153.5 24.5q-65 29 -25.5 48.5t56.5 8.5q29 -18 55 -24t86 -10q208 -16 414.5 40t347.5 204q195 207 240.5 420.5t140.5 411.5q96 203 218 320t236 201z" />
    <glyph glyph-name="afii10034" unicode="&#x420;" horiz-adv-x="1651" 
d="M546 444q-130 -14 -220 48q-112 75 -155 221t-36 302q12 267 141 467q125 195 358 316q146 75 311.5 112.5t327.5 46.5q163 8 327.5 -20t301.5 -124q156 99 324 144q100 26 78.5 0l-44.5 -52q-182 -25 -323 -119q18 -15 33 -30q90 -88 122.5 -194.5t20.5 -216.5
q-10 -90 -59.5 -176t-152.5 -158q-63 -44 -142.5 -81t-207.5 -65q-12 -3 -30.5 -3t-25.5 17q-8 15 17.5 22t40.5 13q309 106 382 269t73 296q0 149 -90 242q-27 24 -32 28q-81 -65 -148 -156q-171 -233 -260.5 -542.5t-230.5 -539.5q-130 -212 -476 -421q46 -10 69 -14
q191 -38 370 -32q156 5 263 78.5t163 139.5q15 18 29.5 7t0.5 -29q-64 -84 -201.5 -164t-290.5 -83q-101 -1 -193.5 17t-180.5 39q-25 6 -75 16q-95 -44 -238.5 -66.5t-263.5 -11.5q-147 15 -145 61q0 25 45 49.5t106 36.5q64 12 156 10t191 -14q32 -4 65.5 -11l66.5 -14
q64 26 108 63q198 160 301 425.5l193 496.5q46 122 139.5 263t202.5 254q94 97 196 169q-123 79 -272 108t-292 26q-159 -5 -325 -44t-312 -117q-216 -119 -334 -297q-124 -184 -134 -436q-6 -144 34 -277t145 -198q77 -49 179 -34q27 5 32 -26q5 -35 -23 -37zM259 44
q84 -7 186.5 1t195.5 36q-25 5 -75 13q-80 12 -162.5 14t-133.5 -13q-43 -14 -49 -29q-9 -18 38 -22z" />
    <glyph glyph-name="afii10035" unicode="&#x421;" horiz-adv-x="1618" 
d="M994 301q1 144 68 265.5t127 187.5q62 69 149 110t163 38q118 -6 159 -73t32 -160.5t-55 -198t-100 -184.5q-83 -87 -236.5 -184.5t-317.5 -109.5q-86 -7 -167 16.5t-135 86.5q-90 104 -105 215.5t-9 222.5q6 123 46 242t101 229q-113 6 -196 26q-206 47 -339 169
t-133 278q0 194 203.5 332.5t491.5 138.5q229 0 393 -83q27 -15 11 -35.5t-41 -8.5q-78 36 -169.5 59.5t-193.5 23.5q-253 0 -432.5 -123.5t-179.5 -296.5q0 -135 113 -242.5t289 -151.5q84 -22 218 -25q90 150 198 275t195 209q101 99 229 180t240 137q58 29 162.5 61
t195.5 35q102 3 152 -18t72 -66q19 -41 19.5 -100t-41.5 -143q-85 -172 -319 -325.5t-540 -240.5q-193 -57 -418 -65q-62 -107 -100 -201q-18 -45 -43 -141.5t-33 -201.5q-9 -110 -4.5 -214t80.5 -157q24 -18 66 -33t87 -15q75 -2 146.5 23t128.5 52q27 13 139 105.5
t177 197.5q18 29 44.5 99t34 141.5t-18 126.5t-109.5 55q-54 -1 -117 -29.5t-114 -67.5q-99 -76 -147.5 -209.5t-60.5 -243.5q-7 -3 -23.5 -21.5t-20.5 -3.5q-11 35 -12 35zM1881 1905q-92 -16 -177.5 -57.5t-155.5 -89.5q-147 -101 -276 -241t-252 -317l-45 -66.5
l-43 -66.5q257 12 398 53q257 73 462.5 203.5t297.5 277.5q30 46 54.5 118.5t0.5 124.5q-29 60 -119.5 65t-144.5 -4z" />
    <glyph glyph-name="afii10036" unicode="&#x422;" horiz-adv-x="2720" 
d="M608 454q-63 -7 -103 -2t-85 36q-86 57 -133.5 141t-64.5 180q-30 171 23 354.5t151 304.5q94 116 232.5 208t264.5 132q240 75 585 84t587 -24q199 -27 406.5 -66.5t414.5 -35.5q402 7 478 82q9 9 27 19t37 1q39 -21 4 -40q-72 -39 -170.5 -85t-149.5 -57
q-215 -45 -526.5 -19.5t-599.5 85.5q-161 33 -357 59t-376 15q-227 -13 -414 -91q-246 -101 -400 -303q-78 -101 -126.5 -276.5t-29.5 -333.5q15 -131 88 -220.5t229 -84.5q26 5 31 -25q5 -36 -23 -38zM2427 1611q6 -17 -1 -27q-23 -30 -78 -108t-119 -216
q-47 -101 -85 -202l-76 -202q-43 -114 -91.5 -227t-114.5 -221q-96 -157 -187 -263.5t-142 -151.5q-15 -11 -28 2q-25 27 -11 41q64 63 120 153t104 191q57 122 95 243t83 231q48 116 111 224t147 234q85 128 148.5 200.5l97.5 111.5q16 19 27 -13zM2709 114
q-72 -55 -100.5 -75t-125.5 -39q-81 -14 -133 8q-77 35 -88.5 137.5t9 220.5t56 225.5t55.5 152.5q63 150 140 283t185 260l118.5 132.5t115.5 113.5q17 16 48.5 40t49.5 46q12 14 29 3q16 -12 4 -26q-21 -25 -47 -47.5t-45 -44.5q-93 -107 -187.5 -276.5t-187.5 -379.5
q-83 -185 -154.5 -382t-72.5 -318q-2 -110 72 -108q36 1 86 19.5t128 78.5q27 20 46 1q14 -15 -1 -25zM1926 1661q4 5 17 19.5t25 5.5q16 -13 2 -27l-139 -151.5t-103 -151.5q-116 -246 -189 -461t-204 -402q-69 -99 -159 -192t-237 -174q-59 -33 -191.5 -73.5t-223.5 -49.5
q-151 -15 -274.5 -5t-153.5 25q-65 29 -25.5 48t56.5 9q29 -18 55 -24t86 -10q208 -17 404 37.5t333 206.5q210 234 280 426.5t126 319.5q90 205 240.5 380t274.5 244z" />
    <glyph glyph-name="afii10037" unicode="&#x423;" horiz-adv-x="1762" 
d="M2444 1936q81 52 91 24q5 -25 -32 -49q-57 -36 -116 -83.5t-112 -137.5q-159 -270 -269.5 -630.5t-258.5 -576.5q-73 -105 -169 -197.5t-276 -194.5q-88 -50 -236 -78t-286 -28q-122 0 -213.5 18.5t-115.5 30.5q-68 31 -26.5 51.5t59.5 9.5q73 -47 188 -56
q136 -11 327 17t297 109q168 129 270 311t180 373q6 16 -4 21.5t-25 -7.5q-45 -42 -111.5 -87t-165.5 -82q-39 -15 -125 -23.5t-131 1.5q-135 30 -163 212q-13 78 4.5 190t44.5 179q44 110 116.5 202.5t164.5 185.5q38 38 100 83l111 81q-29 -6 -69.5 -17t-70.5 -8
q-122 6 -229 33q-187 44 -372 27t-349 -134q-99 -71 -187.5 -197.5t-128.5 -265.5q-27 -93 -30 -233.5t29.5 -268t106.5 -212t202 -63.5q24 2 29 -27q4 -34 -21 -39q-120 -14 -204 50q-157 117 -187 380t28 443q97 295 343 486q93 72 202 119.5t219 56.5q122 9 219 3
t215 -30q73 -15 120 -23l89.5 -17.5t97.5 -1.5q24 4 45 15q41 30 62 57q7 9 21.5 19.5t29.5 1.5q26 -20 3 -41q-88 -86 -177 -163.5t-164 -179.5q-52 -70 -112 -181.5t-105 -230.5q-43 -112 -64 -209t3 -164q18 -53 72 -63q157 -30 286.5 51.5t230.5 193.5q60 68 90.5 121.5
t66.5 136.5q87 207 205 386t337 320z" />
    <glyph glyph-name="afii10038" unicode="&#x424;" horiz-adv-x="2077" 
d="M1169 1534q93 0 153 -65t84 -160q3 -18 19 -11.5t23 19.5q70 135 163.5 256.5t223.5 214.5q98 70 173.5 97.5t196.5 33.5q85 4 118 -30q21 -24 4 -51t-35 -18q-52 26 -92.5 41.5t-93.5 6.5q-100 -18 -185 -85q-66 -52 -129.5 -124t-100.5 -133q-44 -72 -83 -166
q-16 -37 -4 -53q14 -20 41 5q105 84 219.5 144.5t202.5 64.5q149 6 228 -118.5t62 -292.5q-14 -130 -97.5 -248t-198 -207.5t-240.5 -142.5t-223 -53q-85 0 -135 70t-73 164q-11 42 -34.5 17t-33.5 -44q-33 -61 -76 -118.5l-91 -117.5q-61 -78 -128.5 -151t-139.5 -123
l265 -61.5t401 -29.5q248 16 408 142q65 51 88.5 49.5t17.5 -26.5q-5 -27 -54 -64q-85 -66 -213 -116t-273 -53q-213 -7 -401 44.5t-283 70.5q-123 -57 -295.5 -83.5t-308.5 -25.5q-78 0 -132.5 30t-57.5 69q-10 95 201 124q123 16 297.5 1t297.5 -44q143 114 210 219
t115 228q6 16 -6.5 43t-34.5 8q-107 -90 -225 -152t-209 -65q-150 -6 -237.5 115t-67.5 289q13 116 94 234.5t195.5 214.5t245.5 156.5t244 60.5zM1359 1126q40 146 -15 246t-172 100q-146 0 -306 -130.5t-261 -328.5q-102 -199 -83 -347.5t165 -148.5q141 0 322.5 122.5
t281.5 315.5q42 81 68 171zM1446 931q-46 -150 -3.5 -280t165.5 -130q145 0 288.5 122t245.5 322q101 198 85.5 348.5t-160.5 150.5q-146 0 -314 -127.5t-261 -295.5q-14 -26 -24 -53.5t-21 -54.5zM770 136q-83 24 -210 36t-216 15q-47 0 -104 -1.5t-90 -36.5
q-20 -21 -11.5 -51.5t67.5 -40.5q87 -17 215 -5.5t145 14.5q48 9 106.5 29t97.5 41z" />
    <glyph glyph-name="afii10039" unicode="&#x425;" horiz-adv-x="2126" 
d="M2006 138l46 40l45 38q15 11 29 -3q13 -17 -2 -28l-46.5 -40l-43.5 -37q-117 -100 -210.5 -103t-148.5 65q-30 35 -43.5 87t-23.5 118q-23 140 -22.5 322t4.5 364l-274 -368.5t-288 -330.5q-176 -172 -443.5 -240t-477.5 22q-26 11 -10 43q11 26 38 15q128 -62 351 -46
t385 141q186 143 366 375.5l354 467.5q2 152 -2 285t-27 222q-36 138 -101 230t-233 103q-210 13 -416 -115q-109 -67 -192 -143q-151 -138 -224 -320q-60 -150 -73 -320q-11 -127 16 -242t120 -165q70 -38 178 -22q27 5 31 -26q3 -35 -25 -37q-131 -14 -214 44
q-105 72 -139 200t-23 266q13 176 80 331q86 197 250 345q153 136 354 215q234 90 407.5 26.5t273.5 -199.5q53 -74 73 -206t24 -288q48 66 90 131.5l81 126.5t81.5 120.5t90.5 116.5q53 63 117.5 121t135.5 86q20 7 64 14.5t90 -1.5q45 -10 76 -38t13 -64q-8 -16 -46.5 -19
t-39.5 22q-3 44 -73 40q-64 -3 -133 -49.5t-128 -104.5q-66 -65 -118.5 -136.5t-101.5 -147.5l-92 -142t-105 -148q1 -78 0 -156q0 -192 -2 -388t31 -386q9 -59 28.5 -104t47.5 -54q21 -9 79 18.5t91 55.5z" />
    <glyph glyph-name="afii10040" unicode="&#x426;" horiz-adv-x="2218" 
d="M459 430q-128 -14 -220 48q-74 50 -110 139q-73 167 -56 360q13 167 72 331q68 188 171 317q126 157 341 244q144 55 314 62q84 4 171 -5q77 -9 162 -26q54 -13 125 -25q31 -6 63.5 -11.5l65.5 -11.5l97 -16t105 -1q53 7 99 39q2 3 4.5 6t5.5 6q7 11 16 9l13 13
q29 35 54 20q27 -15 3 -39q-40 -43 -90 -74q-9 -10 -17 -20.5t-16 -19.5q-112 -138 -210 -290q-69 -109 -129.5 -223.5t-116.5 -236.5q-76 -165 -136.5 -328.5t-95.5 -342.5q-27 -130 -20 -203q6 -78 54 -91q31 -9 68.5 4t64.5 27q102 54 189.5 120t175.5 141l65 56
q9 61 28 119q21 66 55 136t61 136q62 152 137.5 288l150.5 264q87 149 179.5 292t209.5 292q22 27 91 18t55 -40q-15 -19 -26 -41t-29 -45l-160 -250.5l-165 -268.5q-195 -329 -345 -695l-65.5 -148.5t-53.5 -151.5q-11 -42 -24.5 -87t-7.5 -83q7 -45 20.5 -67t66.5 -10
q69 15 152.5 72.5t113.5 82.5q14 12 28 -3q24 -29 5 -45q-23 -20 -78 -53q-91 -121 -166 -294.5t-243 -196.5q-48 -6 -82 16.5t-34 49.5q0 72 116 66q39 -1 84 10t75 41q69 72 100 138t69 123q-104 -55 -137 -59q-98 -13 -137 38t-46 130q-9 84 -4 167l-32 -28
q-90 -77 -178.5 -144t-193.5 -122q-64 -33 -88 -39q-81 -17 -139 36q-67 60 -80.5 175t-10.5 199q8 217 97 434q69 165 170.5 319.5t213.5 294.5q66 82 134 156.5l132 139.5q-27 -8 -43 -10q-74 -14 -164 -9q-107 6 -244 37l-198 41.5t-184 26.5q-207 13 -403 -113
q-117 -75 -188.5 -164.5t-124.5 -213.5q-82 -189 -98 -391q-7 -84 5 -171.5t52 -163.5q90 -173 280 -145q27 2 32 -26q4 -33 -23 -38z" />
    <glyph glyph-name="afii10041" unicode="&#x427;" horiz-adv-x="2013" 
d="M2013 138q-53 -42 -162 -97.5t-142 -60.5q-99 -12 -135.5 38.5t-39.5 128.5q-8 192 48 346q24 66 62.5 135.5t68.5 135.5q27 61 70 141l-166 -103t-169 -82q-185 -68 -290 12q-65 48 -83.5 106.5t-19.5 124.5q-7 220 159 422q108 129 239 227.5t236 170.5q-6 -2 -10 -2
q-73 -14 -164 -9q-60 3 -121 13.5t-122 23.5l-198 41.5t-184 26.5q-207 13 -404 -113q-117 -75 -188 -164.5t-125 -213.5q-74 -173 -72 -406.5t124 -372.5q57 -66 141.5 -97.5t212.5 -13.5q27 5 32 -26q5 -35 -23 -37q-144 -15 -253 29.5t-172 131.5q-108 142 -112.5 353
t57.5 382q66 186 170 317q129 159 342 244q142 55 313 62q85 4 171 -5q81 -9 162 -27q61 -14 125 -24q31 -6 63.5 -11.5t65.5 -10.5l97.5 -17t105.5 -2q81 12 137 74q8 9 23.5 19t30.5 1q25 -15 4 -39q-82 -87 -171.5 -168t-172.5 -167l-112.5 -120.5t-165.5 -232.5
q-84 -149 -111.5 -303t101.5 -178q33 -6 69 3t62 18q100 36 171.5 74t130.5 81q86 63 129 121t100 148q42 69 83 130q95 150 195 292.5t225 291.5q24 27 92 18.5t53 -39.5q-16 -19 -28 -41t-32 -45l-173.5 -251l-179.5 -268q-212 -328 -381 -695l-74 -149t-62 -152
q-13 -42 -29 -87t-11 -82q5 -45 17 -67t66 -10q69 15 155.5 72t117.5 83q16 12 29 -4q22 -28 2 -45z" />
    <glyph glyph-name="afii10042" unicode="&#x428;" horiz-adv-x="2867" 
d="M445 440q-130 -13 -220 48q-73 49 -111 139q-71 169 -55 360q13 167 72 331q68 188 171 317q126 157 341 244q144 55 314 62q84 4 171 -5q75 -9 161 -26q56 -14 126 -25q30 -6 63 -11.5l66 -11.5l96.5 -16t105.5 -1q81 10 137 73q31 34 55 20q26 -16 3 -39l-12 -12
l-12 -12q-3 -6 -7 -10l-35 -41.5l-39 -44.5q-123 -144 -223 -290q-75 -109 -141.5 -223.5t-128.5 -235.5q-84 -165 -152.5 -329t-112.5 -342q-14 -56 -23 -109t-6 -95q3 -77 49 -90q31 -10 69 3t65 27q105 54 195.5 120.5t182.5 141.5l43 35q3 12 6.5 24.5l7.5 26.5
q27 91 68.5 179l78.5 166q70 152 147 288t159 264q189 295 432 584q23 27 91.5 18.5t53.5 -39.5q-16 -19 -28.5 -41.5t-31.5 -44.5l-173.5 -251.5l-179.5 -268.5q-209 -321 -381 -694q-65 -138 -119 -318q-13 -42 -22.5 -81t-7.5 -77q2 -59 64 -77q31 -9 69 4t66 27
q105 54 195.5 120t181.5 142l55 45q11 55 33 115q24 66 62.5 136t68.5 136q70 152 152.5 288l165.5 264l195 292t225 291q23 28 91.5 19t53.5 -40q-16 -19 -28 -41t-32 -45l-173.5 -251l-179.5 -268q-210 -323 -381 -695q-37 -78 -74 -148.5t-62 -151.5q-13 -42 -29 -87
t-11 -83q5 -45 17 -67t66 -10q69 15 155.5 72.5t117.5 82.5q16 12 29 -3q22 -30 2 -45q-54 -42 -163 -98t-141 -60q-99 -13 -135.5 37.5t-39.5 129.5q-4 98 6 170l-11 -9l-9 -7q-93 -78 -185 -145t-200 -122l-46.5 -23.5t-43.5 -14.5q-67 -10 -127.5 14t-91.5 99
q-42 100 -24 208q0 -2 -2 -2q-93 -77 -185.5 -144.5t-199.5 -121.5q-63 -34 -90 -39q-81 -19 -138 36q-63 60 -71.5 175t-0.5 198q19 218 119 434q76 165 185.5 319.5t228.5 294.5q75 89 151.5 168l147.5 146q-37 -14 -80 -22q-74 -14 -165 -9q-60 3 -121 13.5t-122 23.5
l-198 41.5t-184 26.5q-207 13 -404 -113q-117 -75 -188 -164t-124 -214q-82 -189 -98 -391q-7 -84 5 -171.5t52 -163.5q88 -173 280 -145q27 2 32 -26q3 -33 -23 -38z" />
    <glyph glyph-name="afii10043" unicode="&#x429;" horiz-adv-x="2832" 
d="M434 432q-128 -14 -220 47q-73 50 -110 139q-71 168 -56 361q13 163 73 330q66 186 170 317q129 160 342 244q144 55 313 62q85 4 171 -5q65 -6 162 -26l62.5 -13.5t63.5 -11.5q30 -6 62.5 -11.5t65.5 -10.5l97.5 -17t105.5 -1q81 10 137 74q8 9 23 19t31 1q26 -16 4 -40
q-16 -16 -25 -24q-1 -2 -6 -10l-35.5 -41l-38.5 -45q-118 -135 -223 -290q-139 -202 -270 -459q-84 -165 -153 -328.5t-112 -342.5q-14 -55 -23 -108t-7 -95q3 -78 49 -91q31 -10 69.5 3t65.5 28q105 54 195.5 120t182.5 141l43 35q4 17 14 51q27 91 68.5 179l77.5 166
q70 152 147.5 288t159.5 265q191 298 432 583q23 27 91 18.5t53 -39.5q-16 -19 -28 -41.5t-31 -44.5l-173.5 -251l-179.5 -268q-210 -325 -382 -695q-36 -78 -65 -157t-54 -160q-32 -103 -29 -159q2 -58 63 -76q31 -10 69.5 3t65.5 27q105 54 195.5 120.5t182.5 141.5l27 22
l28 23q11 55 33 115q24 66 62 136t69 136q70 152 152.5 288l164.5 264l195.5 292t225.5 292q23 27 91 18.5t53 -40.5q-16 -19 -28 -41t-31 -44l-173.5 -251.5l-179.5 -268.5q-108 -165 -203.5 -340.5t-178.5 -353.5q-36 -78 -73 -149t-62 -152q-13 -42 -29 -87t-12 -83
q5 -45 17 -67t66 -10q69 15 155.5 72.5t118.5 82.5q16 12 28 -3q22 -29 3 -45q-19 -15 -46 -31q-56 -54 -98 -139t-89 -169t-107.5 -149t-152.5 -78q-48 -6 -82 16.5t-34 49.5q0 72 116 66q38 -1 83.5 10t75.5 41q81 83 112 158.5t82 138.5q-121 -66 -164 -72
q-99 -13 -135.5 38t-39.5 129q-5 86 5 170l-20 -16q-93 -77 -185 -144.5t-199 -121.5q-65 -35 -91 -38q-66 -11 -127 13t-91 100q-43 102 -24 207q-1 -1 -2 -1.5t-47.5 -39t-138.5 -106t-200 -121.5l-46.5 -23.5t-43.5 -15.5q-83 -16 -137 36q-64 60 -72 175t0 198
q19 220 119 434q76 165 185.5 320t228.5 294q75 89 151.5 168l147.5 147q-42 -16 -81 -23q-74 -14 -164 -9q-60 3 -121 13.5t-122 23.5l-198 42.5t-184 26.5q-208 12 -404 -114q-117 -75 -188 -164t-125 -214q-83 -193 -97 -391q-8 -84 4.5 -171.5t52.5 -163.5
q88 -173 280 -145q26 2 31 -26q5 -35 -23 -37z" />
    <glyph glyph-name="afii10047" unicode="&#x42d;" horiz-adv-x="1728" 
d="M100 100q-59 43 -16 80q29 24 59 -3l45.5 -48.5t55.5 -39.5q74 -35 176 -44t206 3q173 18 336 76t263 124q174 114 300.5 268t224.5 328q58 105 97 219q-69 -57 -164.5 -102t-182.5 -24q-57 12 -140.5 42.5t-149.5 25.5q-50 -4 -96.5 -16.5t-79.5 -45.5q-17 -17 -38 1
q-25 23 42 74t171 82q92 28 192 6q72 -16 141.5 -39.5t159.5 -15.5q94 9 169 77q62 226 33 404q-11 67 -44 137.5t-132 133.5q-117 73 -315.5 74.5t-439.5 -130.5q-84 -46 -171 -109t-159 -151q-166 -203 -228.5 -459.5t91.5 -429.5q46 -53 117 -85t185 -18q32 2 37 -26
q5 -32 -27 -37q-187 -17 -293 65.5t-148 211t-29.5 275.5t63.5 260q110 243 324 419q174 145 394 220q284 96 521 25q117 -36 209 -115t143 -208q53 -136 56.5 -310t-57.5 -340q-82 -219 -282.5 -428.5t-458.5 -352.5q-145 -81 -324 -123t-355 -42q-138 0 -273 28t-208 83z
" />
    <glyph glyph-name="afii10048" unicode="&#x42e;" horiz-adv-x="3062" 
d="M2911 1856q-210 -38 -429 -274t-369 -532q-160 -316 -189.5 -615t189.5 -402q70 -25 152 -25q318 -15 590.5 271.5t425.5 643.5q20 46 85.5 263.5t69.5 417.5q3 127 -38.5 216t-154.5 89q-83 0 -174.5 -55.5t-176.5 -150.5q-86 -96 -157.5 -223t-113.5 -271
q-39 -129 -44 -286t59 -280q8 -19 -9 -27q-32 -16 -42 9q-53 137 -49 296.5t46 298.5q44 148 117.5 279t162.5 230q91 102 190.5 161t190.5 59q140 0 198.5 -109.5t70.5 -235.5q15 -167 -27.5 -341t-99.5 -329q-74 -200 -198.5 -374t-274.5 -303q-156 -135 -324.5 -212
t-322.5 -77q-89 0 -165 28q-136 48 -211 183q-77 139 -78 324q-1 113 23 225t58 204q2 5 3.5 10t4.5 11l-336 14q-22 -56 -47.5 -115t-58.5 -123q-109 -210 -207.5 -341t-359.5 -284q-79 -46 -200 -68t-239.5 -28t-212.5 1t-118 19q-64 31 -25 51t57 9q29 -19 55 -25t86 -10
q129 -12 309 16.5t282 106.5q245 184 345.5 428t236.5 515q53 106 122 221t147 205l96.5 109.5t80.5 83.5q-14 -5 -44 -11q-71 -14 -159 -9q-58 3 -117 13.5t-119 23.5l-191.5 41.5t-178.5 26.5q-201 13 -391 -113q-114 -75 -183 -164t-120 -214q-35 -83 -67 -224t-25 -273
t72 -220t227 -64q26 2 31 -26q3 -35 -23 -37q-125 -14 -213 48q-162 112 -141.5 346.5t75.5 392.5q64 185 166 317q124 160 331 244q138 55 303 62q82 4 166 -5q71 -8 157 -26q51 -13 121 -25q30 -6 61.5 -11.5t63.5 -10.5q42 -8 94 -17t102 -1q78 10 134 74q7 9 22 18.5
t30 0.5q25 -15 4 -39q-45 -48 -91 -75q-49 -57 -82 -105l-69 -99q-116 -165 -171 -295t-104 -261l338 -14q70 162 176.5 310.5t223.5 260.5q135 129 285.5 212t297.5 106q20 2 23 -17q3 -21 -17 -23z" />
    <glyph glyph-name="afii10049" unicode="&#x42f;" horiz-adv-x="2028" 
d="M90 46q89 -26 170.5 -38.5t178.5 -4.5q133 11 226 84q60 48 108.5 116l95.5 131q86 117 166.5 252t179.5 234q45 45 108.5 87.5t133.5 81.5q15 10 11 7q-57 -4 -118.5 1t-116.5 26q-72 27 -114 79q-69 85 -52 213q6 50 25 98.5t41 88.5q60 107 162.5 187.5t213.5 128.5
q277 120 601 130q102 3 204.5 -3t202.5 -18q38 -6 20 -38l-370 -694.5l-343 -693.5q-19 -37 -72 -155t-56 -174q-3 -48 6 -94t88 -34q60 9 98 37.5t89 54.5q21 11 36 -18q8 -18 -9 -27l-23 -12l-22 -12q-62 -35 -98 -47q-32 -11 -66.5 -19.5t-64.5 -2.5q-126 23 -124.5 176
t43.5 295q24 85 49 139l43 96q54 129 112 245l122 233q98 180 208 358.5t209 358.5q-70 6 -140.5 4l-139.5 -4q-190 -7 -374 -82q-177 -73 -296 -178q-41 -36 -86 -94t-80 -127q-35 -70 -48 -143.5t16 -132.5q59 -125 288 -100q42 3 72.5 9.5t125.5 33.5q30 6 31 -21
t-19 -31q-20 -7 -40 -6t-41 -4q-47 -13 -92 -29t-83 -44q-129 -99 -222 -250.5t-195 -297.5q-85 -121 -189 -221t-227 -160q-99 -46 -210 -57q-81 -7 -179.5 3l-181.5 18q-27 3 -23 34q2 29 31 27z" />
    <glyph glyph-name="afii10065" unicode="&#x430;" horiz-adv-x="973" 
d="M743 195q-15 -29 -16 -71.5t17 -66.5q21 -31 71 -13q12 4 48.5 26.5t57.5 37.5q19 3 33 -6t-2 -24q-96 -87 -195 -94.5t-105 184.5q-4 -6 -7.5 10t-18.5 -2q-33 -36 -80 -65t-89 -52q-101 -55 -175 -57q-85 -3 -146 58q-39 39 -49 88.5t-4 102.5q13 159 97 280
q62 88 159 167q97 80 196 119q52 20 112.5 30.5t108.5 -2.5q74 -21 104 -119l73 101l123 -11zM788 595q33 69 9.5 141.5t-101.5 70.5q-49 -2 -116 -37q-57 -30 -95.5 -66t-77.5 -83q-53 -61 -98 -139q-29 -48 -56 -101t-42 -106q-25 -80 -9 -151q17 -78 94 -66
q50 8 103.5 30t97.5 48q101 59 134 129z" />
    <glyph glyph-name="afii10066" unicode="&#x431;" horiz-adv-x="910" 
d="M637 786q-103 0 -229.5 -130t-178.5 -287q-105 -311 100 -311q102 0 226 118t178 275q52 156 29 245.5t-125 89.5zM615 847q54 0 103.5 -22.5t69.5 -67.5q10 2 15 16q7 18 0 50l-16 70q-23 85 -69 144t-61 119q-19 76 -14.5 148t39.5 120q81 114 221.5 97t257.5 -6
q53 5 73 32.5t38 37.5q44 26 53 2q6 -18 -23 -55q-61 -77 -91 -101.5t-117 -37.5q-112 -17 -223.5 6t-159.5 -71q-42 -84 1.5 -172l89.5 -177q67 -130 58 -293q-6 -111 -46 -218.5t-101 -193.5q-78 -110 -185.5 -193t-195.5 -83q-135 0 -198 92q-99 144 -23 337.5t195 290.5
q157 129 309 129z" />
    <glyph glyph-name="afii10067" unicode="&#x432;" horiz-adv-x="910" 
d="M545 1014l133 66q65 36 131.5 86t139.5 116q74 67 130.5 128t82.5 102q44 67 48 110.5t-30 66.5q-63 41 -176 -34.5t-459 -640.5zM736 1482q118 133 247.5 209t217.5 19q49 -32 49.5 -91.5t-47.5 -133.5q-120 -184 -306.5 -318.5t-372.5 -208.5l-273 -522
q-30 -60 -63 -187.5t42 -179.5q15 -12 46 -17t90 17q94 36 198 159.5t152 252.5q56 151 60.5 219t-28.5 83q-68 29 -161 -61q-58 -57 -110.5 -148t-97.5 -184q-15 -30 -39 -22.5t-5 51.5q36 79 99.5 181t148.5 178q51 46 111 55t104 -6q56 -21 75.5 -84t14.5 -132
q-7 -102 -49.5 -198t-79.5 -143q-119 -150 -267 -215q-124 -55 -213 -55q-69 0 -103.5 24t-55.5 59q-72 115 -28 272t101 265l135.5 259t119.5 213q195 289 288 390z" />
    <glyph glyph-name="afii10068" unicode="&#x433;" horiz-adv-x="670" 
d="M515 777q-131 0 -233 -104q-48 -48 -66 -16t3 48q92 72 148 94.5t140 29.5q84 8 146 -39q45 -35 51 -84t-13 -93q-19 -45 -55 -78.5t-73 -54.5q-64 -36 -119.5 -64t-104.5 -67q-24 -20 -58.5 -52.5t-55.5 -77.5q-24 -51 -17.5 -104t77.5 -62q62 -9 139.5 37t116.5 95
q10 13 50.5 10.5t35.5 -10.5q-75 -112 -183 -154t-185 -39q-102 0 -154 76q-51 77 -19 171q24 71 95 125q39 28 80 46l83 36q118 51 189 139q59 74 44 150q-10 42 -62 42z" />
    <glyph glyph-name="afii10069" unicode="&#x434;" horiz-adv-x="960" 
d="M821 715q-14 30 -49 47t-62 21q-107 13 -211 -99q-76 -82 -147 -198.5t-108.5 -220.5t-27 -171.5t98.5 -52.5q61 10 133.5 52.5t134.5 102.5q48 46 83.5 98t53.5 94l39 94t44 100q36 76 18 133zM132 408q35 90 119 188t189 166q148 95 276 84q72 -6 143 -105q17 -25 37 2
q11 16 21.5 36.5t22.5 28.5q31 17 67 17.5t53 -17.5q15 -18 -27 -82q-86 -135 -134.5 -245.5l-109.5 -251.5l-101.5 -234t-119.5 -213q-90 -123 -218.5 -202t-314.5 -100q-204 -23 -261 10q-56 33 -21.5 54t49.5 9q26 -20 27 -20.5t53 -6.5q114 -11 222.5 9.5t198.5 100.5
q114 103 162.5 206.5t120.5 241.5q21 39 3.5 41t-29.5 -8q-18 -15 -30 -26t-24 -17q-32 -18 -83 -42t-108 -34q-39 -6 -93 -0.5t-78 23.5q-41 32 -49 75q-27 149 37 312z" />
    <glyph glyph-name="afii10070" unicode="&#x435;" horiz-adv-x="847" 
d="M667 868q112 0 168 -67q46 -57 46.5 -142.5t-63.5 -151.5q-101 -103 -288 -143.5t-294 -30.5q-24 -78 -34.5 -143t5.5 -102q19 -45 104 -45q55 0 138 25q61 18 119 44.5t84 55.5q22 25 52.5 12t-5.5 -44q-83 -72 -188 -114t-192 -42q-112 0 -173.5 66t-69.5 176
q-14 203 114 375q104 140 265 215q120 56 212 56zM256 397q36 -6 140.5 -0.5t194.5 65.5q44 28 87.5 85t62.5 108q12 32 20.5 67.5t-5.5 60.5q-20 33 -79 33q-145 0 -263.5 -151.5t-157.5 -267.5z" />
    <glyph glyph-name="afii10072" unicode="&#x436;" horiz-adv-x="1881" 
d="M463 103q-27 -19 -57.5 -36.5l-58.5 -33.5q-55 -32 -100 -32q-180 -11 -171 162q2 69 59 87t87 -19q56 -69 -3.5 -95.5t-39.5 -60.5q20 -35 74 -19.5t92 61.5q34 42 90 128t105.5 180t79.5 178t12 123q-30 64 -172 2q-39 -18 -76 -37.5t-55 -37.5q-22 -21 -46 -11.5
t6 40.5q34 35 69.5 57.5t71.5 41.5q36 18 89 36.5t89 18.5q101 3 134.5 -53.5t24.5 -136t-48 -165t-82 -139.5l-31.5 -41l-34.5 -46q-13 -17 0.5 -10t20.5 13q164 138 349.5 323.5t233.5 243.5q14 16 39.5 14t47.5 -5q17 -3 9 -21l-115.5 -243.5l-118.5 -240.5
q-9 -18 -2 -23t22 10l196 181.5l195 173.5l67 55.5l69 54.5q70 54 130 54q177 12 184 -162q3 -69 -52.5 -87.5t-88.5 19.5q-62 68 -4.5 94.5t34.5 61.5q-22 34 -75 18.5t-87 -60.5q-32 -42 -83.5 -133.5t-96.5 -192t-70 -190t-3 -127.5q16 -32 73 -20q40 7 104 37
q36 16 77 44t59 46q20 21 44.5 11t-2.5 -40q-32 -36 -65.5 -58t-67.5 -41q-36 -19 -87.5 -40t-86.5 -21q-101 -3 -139 53.5t-35 137.5t35 167.5t71 141.5q17 24 11 31t-29 -14l-170.5 -158l-173.5 -170q-21 -21 -60.5 -76.5t-72.5 -84.5q-20 -22 -29 -24q-25 -6 -56 -2
t-46 7q-18 4 -7 34q26 54 59.5 108t62.5 107l67.5 124t60.5 132l4 10t5 11q6 15 -6 15.5t-23 -15.5q-9 -13 -64.5 -66.5l-130.5 -120.5l-155 -133.5t-136 -105.5z" />
    <glyph glyph-name="afii10073" unicode="&#x437;" horiz-adv-x="834" 
d="M225 252q54 -79 3 -99.5t-43 -41.5q18 -49 121 -60q122 -15 225 102q25 28 46 57l36 51q65 103 34 171q-9 18 -61 21t-79 6q-35 4 -26 25q1 4 12 14.5t16 9.5q98 -28 175 31q39 28 49 88q12 70 -22 108q-49 55 -132 48q-26 -3 -70.5 -21.5t-40.5 -51.5q2 -21 7.5 -44.5
t-14.5 -39.5q-51 -38 -94 -18q-35 14 -37 65q-2 53 38.5 84t85.5 50q76 32 157 32q111 0 202 -59t65 -164q-23 -88 -83.5 -109t-109.5 -32q35 -13 72.5 -44t49.5 -72q19 -76 -21 -155q-59 -111 -189 -160q-109 -42 -208 -46q-141 -8 -223 52q-36 25 -61 57t-22 83
q3 69 57.5 86.5t84.5 -24.5z" />
    <glyph glyph-name="afii10074" unicode="&#x438;" horiz-adv-x="960" 
d="M176 107q10 -56 65 -41q57 15 139 56.5t126 75.5l66.5 49.5l60.5 45.5q63 150 144.5 302t130.5 227q16 24 73.5 23.5t61.5 -17.5l-313 -607q-15 -28 -20.5 -65.5t12.5 -62.5q28 -42 80 -22q12 4 48.5 26t57.5 37q19 4 33 -5t-2 -24q-45 -41 -92.5 -63.5t-80.5 -30.5
q-72 -18 -105 14t-44 71q-16 51 -5 120q-31 -25 -89 -66.5l-97 -67.5q-42 -27 -90 -43.5t-87 -28.5q-60 -15 -100 13q-55 39 -66 117t4 137t39.5 108t52.5 95q17 28 91 141.5t47 143.5q-21 21 -70 6t-91 -34q-27 -13 -37 16t14 38q18 6 47.5 20.5t62.5 19.5q26 3 66 3
t68 -13q43 -21 50 -71t-12.5 -108.5t-34.5 -93.5q-21 -51 -53 -98.5l-63 -95.5q-27 -40 -49 -80t-33 -82q-13 -47 -6 -85z" />
    <glyph glyph-name="afii10075" unicode="&#x439;" horiz-adv-x="960" 
d="M179 99q10 -56 64 -41q26 6 83 36q65 33 157.5 91t152.5 104q63 150 144 302t130 227q16 24 73.5 23t62.5 -17l-314 -607q-15 -28 -20.5 -66t12.5 -62q29 -42 80 -22q12 4 49 26t58 37q18 4 32.5 -5t-2.5 -24q-45 -42 -92.5 -64t-79.5 -31q-72 -18 -105.5 14.5
t-44.5 71.5q-16 51 -5 120q-57 -45 -175.5 -117.5t-187.5 -92.5q-57 -15 -100 13q-55 38 -66 116.5t4 137.5t39.5 107.5t52.5 94.5q17 29 91 142t47 143q-21 22 -70 7t-91 -34q-27 -13 -37 16t15 38q18 6 47 20.5t62 19.5q26 3 66 3t69 -13q42 -22 49 -71q8 -51 -12 -109
t-34 -94q-21 -51 -53.5 -98.5l-63.5 -94.5q-63 -96 -82 -162q-14 -48 -5 -85zM1024 1196q0 -75 -76.5 -124.5t-168.5 -49.5q-93 0 -171.5 47.5t-78.5 122.5q0 63 68 55q51 -6 57 -49q2 -13 -11 -26.5t-13 -33.5q0 -30 49 -51t100 -21q50 0 97 23t47 53q0 15 -14 29.5
t-11 27.5q3 21 28.5 35.5t40.5 16.5q13 1 35 -10.5t22 -44.5z" />
    <glyph glyph-name="afii10076" unicode="&#x43a;" horiz-adv-x="1024" 
d="M835 205q-14 -29 -36.5 -66.5t-4.5 -61.5q29 -42 80 -22q12 4 49 31.5l58 42.5q18 3 32.5 -6t-2.5 -24q-93 -86 -172 -94q-66 -6 -108 29q-66 56 -50 171q7 57 36.5 101.5t44.5 85.5q18 47 -9.5 67t-126.5 1q-6 -1 4.5 19t21.5 22q270 41 316.5 164.5t-137.5 105.5
q-33 -4 -96.5 -41.5t-144.5 -93.5q-41 -28 -64 -54.5l-39 -46.5l-46 -61t-49 -91q-36 -87 -73 -164.5l-70 -151.5q-7 -15 -21.5 -35.5t-22.5 -20.5h-118q-21 0 4 50l143.5 309l150.5 336q76 174 155 327t179 283q110 143 228 227q161 115 351 127q77 5 129 -11.5t70 -28.5
q50 -33 19 -54t-43 -9q-41 35 -151 48q-103 11 -194 -31t-166 -120q-82 -84 -148 -198t-129 -241q-40 -79 -77 -161.5l-73 -165.5q-6 -13 -2.5 -23t18.5 0q66 44 143.5 87.5t152.5 63.5q183 49 230 -32t-1 -156q-46 -72 -141.5 -102.5t-159.5 -46.5q65 -28 87 -86
q15 -45 5 -97t-32 -101z" />
    <glyph glyph-name="afii10077" unicode="&#x43b;" horiz-adv-x="814" 
d="M568 194q-13 -29 -17 -64.5t14 -59.5q10 -15 43 -15t57 9q12 4 48.5 26t57.5 37q19 3 33 -6t-2 -24q-45 -41 -92.5 -63t-80.5 -31q-72 -18 -105 14t-44 72q-28 91 45 230q110 211 164 294q-10 62 -105 -55t-173 -234l-97.5 -119.5t-97.5 -113.5q-26 -27 -58.5 -51
t-71.5 -30q-48 -7 -83 17q-62 45 -25 105q36 61 98 18q33 -25 35 -64q28 -12 50 10q69 68 144.5 165l152.5 199q86 114 174 215t180 146q25 12 58 4t39 -29l-178 -296.5t-163 -305.5z" />
    <glyph glyph-name="afii10078" unicode="&#x43c;" horiz-adv-x="1390" 
d="M683 275q-18 -33 -31 -91t-7 -88q10 -57 74 -40q60 15 131 111l146 198l191 255.5t166 168.5q27 12 86.5 16t62.5 -17q-6 -10 0 -14t-3 -17l-174.5 -267t-157.5 -294q-13 -29 -23 -71t8 -66q10 -15 44 -12.5t58 11.5q12 4 48.5 26.5t57.5 37.5q19 3 33.5 -6t-2.5 -24
q-45 -41 -92.5 -63.5t-79.5 -29.5q-72 -18 -105.5 13.5t-44.5 71.5q-20 64 2 152t56 167q15 38 10.5 50.5t-27.5 -22.5q-96 -144 -196.5 -275t-180.5 -150q-60 -14 -110 0t-68 77q-23 75 4.5 179t58.5 176q7 18 -7.5 20.5t-29.5 -15.5q-77 -90 -148.5 -201.5t-123.5 -165.5
q-26 -27 -60 -51t-73 -28q-52 -6 -83 16q-26 18 -30.5 53t11.5 61q35 63 98 17q33 -24 35 -64q28 -11 50 11q36 35 71 87.5l75 112.5q39 60 89 126.5l97 129.5l102 135t113 118q10 8 30 16q33 10 75 7.5t48 -20.5z" />
    <glyph glyph-name="afii10079" unicode="&#x43d;" horiz-adv-x="1011" 
d="M247 685q151 53 284 136q25 17 86 9q19 -3 9 -21l-153 -321h335l31.5 61.5t74.5 121.5l85 129q16 24 73 23.5t62 -16.5l-97 -166.5t-89 -160.5t-67.5 -143.5l-59.5 -136.5q-13 -29 -19.5 -66.5t11.5 -61.5q28 -41 80 -23q12 4 48.5 26.5t57.5 37.5q18 3 32.5 -6t-2.5 -24
q-44 -41 -91.5 -63t-80.5 -30q-72 -18 -105 13.5t-45 71.5q-21 71 6.5 169t65.5 182h-336l-203 -404q-5 -11 -24 -13l-66 -4t-64 7q-21 5 -6 34q25 55 56 102t60 100q54 100 104.5 207l97.5 215l4 10t5 11q7 18 -29 0l-59.5 -32t-56.5 -23q-21 -6 -27 18q-8 25 12 31z" />
    <glyph glyph-name="afii10080" unicode="&#x43e;" horiz-adv-x="910" 
d="M659 825q-103 0 -229 -130.5t-179 -286.5q-53 -157 -28 -254t128 -97q102 0 214 112.5t165 270.5q52 156 41.5 270.5t-112.5 114.5zM638 885q156 0 218 -133.5t13 -317.5q-50 -184 -201.5 -315.5t-307.5 -131.5t-226.5 131.5t-20.5 315.5q49 186 216 323q155 128 309 128
z" />
    <glyph glyph-name="afii10081" unicode="&#x43f;" 
d="M953 762q-9 32 -77 15q-49 -13 -101 -38.5t-62 -31.5q-95 -58 -155 -109q-68 -57 -107 -141l-101.5 -216l-103.5 -216q-6 -12 -25 -14l-65.5 -6t-63.5 5q-22 5 -7 34q24 56 54.5 104t57.5 102q100 195 195 429q7 18 2 24q-6 5 -22 -4q-28 -15 -59 -34t-56 -25
q-20 -6 -28 17q-8 24 11 32q148 54 282 145q24 16 86 12q18 -3 10 -22l-35 -77l-34 -76q-15 -36 15 -8q59 54 111 86q31 18 87 43.5t113 38.5q90 18 135 -12q33 -25 43 -78q16 -81 -13 -155q-36 -90 -102 -182t-120 -212q-32 -70 -30.5 -95.5t16.5 -34.5q37 -24 147 57
q28 21 47 9q10 -8 13 -27.5t-16 -31.5q-114 -78 -198 -78q-81 -1 -101 74q-13 44 -10.5 96.5t13.5 85.5q32 103 97 207q26 41 57 82.5t55 80.5q57 92 45 145z" />
    <glyph glyph-name="afii10082" unicode="&#x440;" 
d="M825 793q-108 0 -254 -104q-33 -25 -66.5 -77t-50.5 -88l-51.5 -105l-52.5 -110q-19 -42 -26.5 -71.5t6.5 -82.5q23 -87 125 -87t204 126.5t165 243.5q62 115 82.5 235t-81.5 120zM241 711q75 25 133 59.5l132 81.5q27 17 86 9q17 -3 10 -22q-5 -10 -19 -42
q-6 -13 -1.5 -22t19.5 1q56 35 115 59t110 24q153 0 188.5 -111.5t-11.5 -295.5q-48 -184 -220.5 -317.5t-328.5 -133.5q-134 0 -172 116q-10 30 -26 -4l-175.5 -356.5l-128.5 -261.5q-5 -10 -24 -13q-32 -1 -65 -3t-65 7q-17 5 -7 34q13 28 68.5 132.5l118.5 224.5l119 224
l70 131q53 100 108.5 230.5l100.5 238.5l4 10t5 11q6 15 -4.5 8t-27.5 -16q-28 -14 -49 -30t-46 -22q-20 -6 -28 18q-8 23 11 31z" />
    <glyph glyph-name="afii10083" unicode="&#x441;" horiz-adv-x="758" 
d="M718 630q-43 35 -27.5 77.5t7.5 63.5q-7 18 -29 36t-79 -5q-94 -37 -186.5 -150t-136.5 -245q-53 -158 -50 -254.5t106 -96.5q54 0 137 28q114 41 184 117q22 24 52.5 11.5t-5.5 -43.5q-83 -73 -177.5 -124.5t-181.5 -51.5q-113 0 -174.5 66t-69.5 176q-14 203 114 375
q108 142 265 215q118 55 212 55q123 0 170 -71q33 -52 32 -110q-1 -72 -61.5 -88.5t-101.5 19.5z" />
    <glyph glyph-name="afii10084" unicode="&#x442;" horiz-adv-x="1542" 
d="M1468 766q-10 31 -77 17q-49 -12 -100.5 -36t-60.5 -29q-161 -92 -238 -265l-91.5 -199t-91.5 -187q-18 -34 -26.5 -48.5t-31.5 -8.5l-100 1q-7 -1 -15.5 14t0.5 39q32 68 91.5 175.5l119.5 221.5q45 87 83 169.5t28 131.5q-10 37 -66 24q-49 -11 -100 -38.5t-60 -33.5
q-33 -18 -69 -44.5t-68 -52.5q-97 -82 -159 -209l-95.5 -192.5l-95.5 -191.5q-6 -12 -25 -12q-33 -3 -66 -4.5t-63 7.5q-21 5 -7 34q26 54 62.5 115t64.5 114q100 184 197 407l4 10.5t5 11.5q7 17 -29 -1q-28 -14 -59.5 -31.5t-56.5 -23.5q-21 -5 -27 18q-8 25 12 31
q75 26 141 56t141 77q27 17 86 9q3 -3 3 -12.5t6 -9.5q-16 -36 -29 -61.5t-29 -60.5q-29 -61 19 -19q66 58 103 79l84 44t110 38q91 17 135 -16q30 -24 41 -79q2 -11 4 -33q1 -39 36 -11q48 41 82 60q30 18 85 41.5t112 34.5q89 17 136 -16q32 -25 46 -79q20 -84 -7 -155
q-33 -88 -94.5 -178t-110.5 -209q-30 -69 -27 -94.5t18 -34.5q18 -13 37.5 -10t66.5 36l24.5 16t28.5 3q12 -9 15.5 -28t-15.5 -31q-54 -36 -88 -47t-73 -10q-82 0 -105 77q-15 44 -14 96.5t10 85.5q30 106 89 203q24 41 53 81.5t52 79.5q54 88 39 143z" />
    <glyph glyph-name="afii10085" unicode="&#x443;" horiz-adv-x="884" 
d="M207 84q5 -30 80 -17q52 9 109.5 30t72.5 30q96 54 164.5 117t113.5 163l53 122t62 127q15 30 45 78.5t60 66.5q79 45 120 0q22 -27 -9 -75q-86 -134 -147.5 -245t-121.5 -252l-98 -218.5t-106 -174.5q-105 -136 -245 -230.5t-312 -114.5q-105 -11 -192 -2.5t-113 23.5
q-57 33 -22 54t49 9q39 -29 125 -37q223 -22 410 146q114 103 180.5 210t138.5 245q20 39 -6 24.5t-38 -24.5q-47 -35 -61 -43q-33 -18 -106 -45.5t-130 -38.5q-92 -15 -134 17q-32 23 -42 79q-17 95 17 192q22 66 80 151q21 30 44.5 67.5t52.5 97.5q23 48 26.5 73t-0.5 42
q-4 15 -22 16.5t-89 -46.5q-32 -19 -47 -8q-12 8 -14.5 27.5t18.5 32.5q117 75 199 72q79 0 100 -78q12 -45 2.5 -96t-21.5 -82q-44 -104 -88 -167.5l-103 -153.5q-26 -39 -44.5 -85.5t-10.5 -78.5z" />
    <glyph glyph-name="afii10086" unicode="&#x444;" horiz-adv-x="1302" 
d="M317 76q102 0 198.5 113.5t142.5 247.5q45 134 45 245.5t-102 111.5q-103 0 -190 -107t-140 -263q-53 -157 -54.5 -252.5t100.5 -95.5zM1154 804q-103 0 -199 -114t-141 -248q-46 -134 -48.5 -242t100.5 -108q102 0 191.5 103t142.5 260q52 157 54 253t-100 96zM680 133
q-60 -145 -136.5 -252.5t-225.5 -237.5q-112 -96 -275.5 -104.5t-199.5 15.5q-45 33 -17.5 54t39.5 9q31 -29 101 -37q91 -11 176 36.5t158 127.5q114 128 203 295q9 18 2 32.5t-31 2.5q-49 -28 -97 -50t-87 -21q-118 3 -170 121t-6 287q33 125 129 244t199 172
q109 55 170 53q117 -6 138 -140q5 -38 18 -20.5t20 35.5l28.5 82.5l29.5 83.5q34 99 132 272t236 306q45 44 97.5 82.5t104.5 59.5q65 26 148 33t144 -35q45 -33 17 -54t-39 -9q-31 29 -101 38q-93 11 -167.5 -32.5t-146.5 -123.5q-93 -103 -140.5 -201.5t-104.5 -236.5
l-92 -221q-18 -45 -5.5 -51.5t36.5 13.5l46 39.5t61 38.5q149 67 232 -66q36 -60 47.5 -146.5t-12.5 -176.5q-34 -126 -116 -223.5t-184 -148.5q-101 -53 -160 -54q-40 0 -79.5 19t-62.5 79q-15 38 -27 47t-30 -36z" />
    <glyph glyph-name="afii10087" unicode="&#x445;" horiz-adv-x="948" 
d="M704 585q36 42 83 89.5l85 86.5q25 26 53.5 46.5t67.5 26.5q47 7 83 -16q60 -45 25 -106q-37 -61 -98 -17q-34 25 -35 64q-28 10 -50 -10q-94 -92 -179 -203l-41 -53q-1 -100 -2.5 -196.5t13.5 -180.5q3 -18 16 -41.5t37 -14.5q12 4 62.5 44.5t71.5 55.5q18 3 32.5 -6
t-2.5 -24q-44 -41 -88.5 -75.5t-76.5 -43.5q-72 -18 -112 12t-52 69q-17 57 -18 126.5t2 141.5l-54.5 -61l-53.5 -60q-37 -43 -76.5 -83l-76.5 -79q-63 -67 -121 -74q-51 -6 -82 17q-63 42 -26 105q35 60 98 17q32 -23 36 -64q27 -12 49 10l93.5 95t87.5 101q37 40 68 78
l61 76q0 17 1 25q0 51 -3 108t-3 99q0 36 -10.5 68t-70.5 10q-12 -5 -48.5 -27t-57.5 -36q-20 -4 -34 5t3 25q44 40 92 62.5t81 31.5q71 18 107 -8.5t42 -66.5q12 -70 14 -156z" />
    <glyph glyph-name="afii10088" unicode="&#x446;" horiz-adv-x="973" 
d="M182 103q10 -56 64 -41q57 15 139 56.5t127 75.5l66.5 49.5l60.5 45.5q63 150 144 302t131 227q16 24 73 23.5t62 -17.5l-314 -607q-15 -28 -20.5 -66t12.5 -62q10 -15 41.5 -28.5t55.5 -4.5q12 3 47.5 15.5t56.5 27.5q18 3 32.5 -6t-2.5 -24q-47 -43 -82.5 -86.5
t-59.5 -106.5q-37 -88 -85 -148q-25 -30 -61.5 -54.5t-77.5 -24.5q-98 0 -98 67q0 66 98 66q30 0 56 -11q26 -14 30.5 -14.5t23.5 17.5q24 24 37.5 57t32.5 71q22 49 70 106q-15 -4 -28.5 -6.5t-24.5 -5.5q-72 -18 -113.5 19.5t-53.5 76.5q-15 47 -5 120
q-31 -25 -88.5 -66.5t-97.5 -67.5q-42 -27 -90 -43.5t-87 -28.5q-59 -16 -100 13q-54 38 -65.5 116.5t4.5 137.5q15 59 39 108t52 95l91.5 141.5t46.5 143.5q-21 21 -70 6t-91 -34q-27 -13 -37 16t15 38q18 6 47 20.5t62 19.5q26 3 66 3t69 -13q41 -21 50 -71
q7 -50 -12.5 -108.5t-34.5 -93.5q-21 -51 -53 -99l-64 -95q-63 -96 -82 -162q-13 -45 -5 -85z" />
    <glyph glyph-name="afii10089" unicode="&#x447;" horiz-adv-x="670" 
d="M335 197q-13 -29 -22.5 -71t8.5 -67q9 -15 43 -12t58 12q12 4 84 32.5t93 43.5q19 3 33 -6t-2 -24q-45 -41 -128 -69.5t-115 -35.5q-58 -15 -94.5 4.5t-57.5 48.5q-62 82 -16 215q32 95 152.5 205.5t147.5 133.5q59 51 69 84q-69 -44 -170 -77t-160 11
q-13 -17 -56.5 -58.5t-79.5 -55.5q-19 -8 -26 -5q-15 4 -18 19t10 21q78 33 92 54.5l30 46.5q-35 28 -22 84q19 96 96 96q74 0 52 -104q-2 -9 -11.5 -21.5t-12.5 -20.5q-22 -70 147 -10q28 10 57 25.5t59.5 29.5t41.5 22.5l41 31.5q42 32 52 -1q-6 -10 0 -13.5t-3 -17.5
q-85 -124 -194 -262t-178 -289z" />
    <glyph glyph-name="afii10090" unicode="&#x448;" horiz-adv-x="1503" 
d="M1217 206q-15 -28 -20.5 -66t12.5 -62q29 -42 80 -22q12 4 49 26t58 37q18 4 32.5 -5t-2.5 -25q-45 -41 -92.5 -63t-79.5 -30q-72 -18 -105.5 14t-44.5 71q-14 50 -5 116l-66.5 -50t-73.5 -51q-42 -28 -86 -54.5t-83 -38.5q-135 -37 -169 78q-15 44 -6 124
q-75 -60 -149 -109q-42 -28 -86 -54.5t-83 -38.5q-59 -14 -100 13q-54 39 -65.5 117t4.5 138q15 58 39 107t52 95l91.5 141.5t46.5 143.5q-21 21 -70 6.5t-91 -34.5q-27 -13 -37 16.5t15 38.5q18 6 47 20t62 20q26 3 66 3t69 -14q41 -21 50 -71q7 -50 -13 -108.5t-34 -93.5
q-21 -51 -53.5 -98.5l-63.5 -95.5q-26 -39 -48 -79.5t-34 -81.5q-13 -45 -5 -86q10 -55 64 -40q29 7 83 36q42 21 87.5 52.5l87.5 63.5l84 66q1 1 1 2q63 152 139 301.5t127 225.5q16 24 80.5 23.5t69.5 -17.5l-290 -549q-17 -33 -32 -83.5t-9 -80.5q10 -55 65 -40
q29 7 83 36q42 21 87.5 52.5l87.5 63.5q31 22 79 62q63 150 145 304t132 229q16 24 73 23.5t62 -17.5z" />
    <glyph glyph-name="afii10091" unicode="&#x449;" horiz-adv-x="1415" 
d="M1176 209q-15 -28 -21 -66t12 -62q29 -42 80 -22l32.5 11t47.5 23q30 18 53 37.5t26 16.5q25 15 22.5 -4t-1.5 -18q19 3 -42.5 -67t-93.5 -151q-34 -87 -84 -148q-25 -30 -61.5 -54.5t-77.5 -24.5q-98 0 -98 66q0 67 98 67q31 0 55 -11q28 -14 27 -14q9 -1 27 17
q24 24 38 57t33 71q25 53 76 114q-56 -35 -112 -48q-72 -18 -105 13.5t-45 71.5q-14 50 -5 116q-77 -60 -140 -102l-86 -54t-83 -38q-135 -37 -169 78q-15 44 -6 123q-78 -61 -149 -109l-86 -54t-83 -38q-59 -16 -100 13q-54 38 -65.5 116.5t4.5 137.5q15 59 39 108t52 94
l91.5 141.5t46.5 143.5q-21 22 -70 7t-91 -34q-27 -13 -37 16t15 38q18 6 47 20.5t62 19.5q26 3 66 3t69 -13q41 -21 50 -71q7 -51 -13 -109t-34 -94q-21 -50 -53 -98l-64 -95q-26 -40 -48 -80t-34 -82q-13 -45 -5 -85q10 -56 64 -41q29 7 83 36q42 22 87.5 53.5l87.5 62.5
l45.5 35l39.5 31v3q63 152 139 301.5t127 224.5q16 25 80.5 24t69.5 -17l-290 -550q-17 -33 -32 -83t-9 -80q10 -56 65 -41q29 7 83 36q42 22 87.5 53.5l87.5 62.5l79 62q63 150 145 304t132 229q16 25 73 24t62 -17z" />
    <glyph glyph-name="afii10092" unicode="&#x44a;" horiz-adv-x="778" 
d="M549 438q-122 0 -219 -125q-46 -68 -59 -122q-37 -143 97 -143q74 0 136 62t105 137t29 133t-89 58zM381 557q28 29 54 49.5t53 44.5q61 51 70 62q-71 -40 -173.5 -69t-162.5 10q-14 -15 -58 -52t-81 -49q-20 -7 -27 -4q-16 3 -19 17t10 19q80 28 94.5 47l31.5 42
q-34 24 -24 74q22 85 98 85t54 -93q-3 -8 -12 -19t-12 -17q-25 -63 149 -10q28 9 57.5 23l56.5 28q43 22 50.5 39t37.5 39q43 33 51 -1q-6 -9 0 -13t-3 -18l-110.5 -154l-119.5 -161l30 12q37 9 75 9q113 0 170 -75.5t27 -177.5t-144.5 -173t-227.5 -71q-124 0 -165.5 66.5
t-32.5 154.5q12 121 66.5 187t136.5 149z" />
    <glyph glyph-name="afii10093" unicode="&#x44b;" 
d="M225 711q79 25 114 41t117 63q30 16 88 9q18 -3 5 -21q-63 -101 -132 -201l-132 -198q-13 -21 -46.5 -83t-54.5 -125q-19 -57 -15.5 -98t54.5 -38q50 3 97.5 37.5t89.5 76.5q93 91 131 173q-50 20 -50 95q0 99 70 99q69 0 69 -99v-6v-6q39 -3 90 35.5t101 86.5
q70 66 135 156l33 45t27 36q12 16 49.5 18t66.5 -4q30 -7 32 -17l-97.5 -152l-96.5 -150l-82 -136t-76 -139q-14 -28 -22 -64t9 -60q26 -39 79 -21q12 3 49.5 24.5t59.5 36.5q19 3 33 -5.5t-4 -23.5q-46 -39 -94.5 -61t-81.5 -30q-73 -17 -105 13.5t-41 69.5
q-21 75 17.5 178.5t81.5 186.5q-52 -39 -102 -64.5t-85 -21.5q-5 -6 -10 -10q-30 -106 -179 -237t-248 -113q-42 7 -67.5 54t-25.5 109q-1 69 24.5 140.5t49.5 109.5l149 244q5 7 13 21q10 18 -30 0q-30 -15 -26.5 -16.5t-22.5 -7.5q-21 -4 -25 18q-3 24 17 32z" />
    <glyph glyph-name="afii10094" unicode="&#x44c;" horiz-adv-x="657" 
d="M452 432q-75 0 -153.5 -59.5t-111.5 -146.5q-72 -185 83 -185q75 0 137 62t105 138q43 75 29 133t-89 58zM190 669q77 26 130 48t130 69q26 16 87 10q19 -3 8 -22q-59 -113 -97.5 -173t-68.5 -119q37 9 75 9q113 0 170 -75.5t27 -177.5q-31 -102 -145 -173.5t-227 -71.5
q-147 0 -180 91t-6 196q28 111 88 204.5t100 147.5q7 16 8 11.5t-10 7.5q-9 8 -10.5 0.5t-9.5 -10.5q-29 -15 -30 -15t-26 -6q-22 -4 -26 18q-7 25 13 31z" />
    <glyph glyph-name="afii10095" unicode="&#x44d;" horiz-adv-x="809" 
d="M213 249q42 -35 11.5 -90.5t-22.5 -76.5q6 -18 50.5 -26.5t104.5 14.5q87 33 184 143t151 232q-59 -27 -91 -28q-51 -1 -81.5 11.5t-61.5 18.5q-41 8 -115 -12q0 13 -4 14t-4 15q58 54 120 58q39 1 79 -14t84 -28q20 -6 46 2.5t50 20.5q51 142 50 216t-99 74
q-62 0 -146 -34q-83 -33 -152 -86q-27 -21 -56 -11.5t7 40.5q42 35 85.5 57.5t88.5 41.5q45 18 90.5 34t89.5 16q112 0 154.5 -57t48.5 -163q8 -191 -125 -361q-123 -151 -267 -215q-125 -55 -214 -55q-124 0 -169 70q-32 51 -29 108q3 69 52 86.5t90 -15.5z" />
    <glyph glyph-name="afii10096" unicode="&#x44e;" horiz-adv-x="1365" 
d="M1191 786q-99 0 -220.5 -126.5t-171.5 -277.5q-51 -153 -27 -246.5t123 -93.5t206 109t158 261t41 263t-109 111zM310 696q75 25 117 50l116 72q26 17 87 9q17 -3 9 -21l-72 -152.5l-72 -150.5l202 -8q58 126 176 225q151 125 297 125q150 0 210.5 -130t12.5 -308
q-48 -179 -194 -306t-296 -127t-218 127t-20 306q2 9 4.5 16.5l5.5 16.5l-207 8l-106.5 -215l-108.5 -214q-5 -11 -25 -13q-33 -2 -66 -3.5t-63 6.5q-21 5 -6 34q25 55 56 102t59 100q54 100 105 207l98 215q6 14 9 22q7 17 -29 -1q-28 -15 -34 -25.5t-31 -16.5
q-21 -4 -27 18q-9 24 11 32z" />
    <glyph glyph-name="afii10097" unicode="&#x44f;" horiz-adv-x="948" 
d="M894 646q1 27 -16 58q-18 32 -50 53q-21 13 -67 17q-75 5 -141.5 -49.5t-104.5 -123.5q-42 -75 -34.5 -140t106.5 -68q48 -2 98 11q35 9 74 28q30 56 65 110l70 103v1zM731 377q-24 -8 -36 -11q-28 -8 -61.5 -13t-61.5 1q-42 -62 -90.5 -123t-101.5 -114
q-35 -35 -57.5 -49l-60.5 -37q-36 -21 -96.5 -19t-80.5 44q-26 59 17 91q30 24 63 17.5t43 -35.5q8 -21 -2 -48q36 -1 75 28q72 51 126 154q17 34 27.5 62l23.5 65q-19 11 -35 28q-50 51 -57 109q-9 59 25 121q38 69 107 111q62 36 146 49q68 10 120 6q56 -4 86 -23
q39 -25 63 -67q8 -15 15 -32l44 61l39 51q4 6 63.5 4t71.5 -11q16 -12 4 -28q-18 -25 -37 -48.5l-37 -47.5l-61 -78t-58 -81q-42 -61 -73 -115q-43 -72 -63 -119q-8 -17 -22 -58.5t-20 -84.5q-3 -18 0 -47.5t30 -35.5q39 -9 95 20l21 10q17 9 27 -9q8 -19 -10 -27l-20 -10
q-52 -26 -86 -32q-24 -5 -42 0q-55 11 -85 52q-52 66 -39 138q11 75 61 181z" />
    <glyph glyph-name="two" unicode="2" horiz-adv-x="1200" 
d="M732 574q-43 -24 -99.5 -43.5t-99.5 -20.5q-85 -4 -146 58q-39 39 -48.5 88.5t-4.5 102.5q6 71 41 147.5t76 135.5q48 69 138.5 143.5t210.5 117.5q104 38 208 35t167 -86q45 -60 62 -155.5t-19 -191.5q-66 -173 -269 -365.5t-596 -401.5q-6 -3 2.5 -16.5t15.5 -10.5
q43 13 121 11q93 -2 142.5 -20.5t88.5 -9.5l59.5 14t88.5 51q8 6 33.5 -15.5t-0.5 -44.5q-73 -68 -134.5 -95t-118.5 -30q-73 -4 -144 16t-153 32q-88 12 -244 -21q-18 -4 -27 15t9 40q6 7 22.5 9t31.5 10q177 87 405 235t387 369q64 90 112.5 186t66.5 219q10 75 -19 143
t-107 66q-122 -4 -215.5 -79.5t-166.5 -165.5q-109 -133 -147 -263q-12 -37 -20 -80.5t1 -80.5q17 -79 101 -66q50 7 90 26t84 45q38 22 42.5 18.5t4.5 -15.5t-3.5 -27.5t-29.5 -28.5z" />
    <glyph glyph-name="zero" unicode="0" horiz-adv-x="1011" 
d="M751 1332q174 0 228.5 -199.5t-21.5 -475.5t-260.5 -473t-358.5 -197t-238 197t12 473q40 142 113 266t165 217q86 87 180.5 139.5t179.5 52.5zM418 90q165 0 314 232t171 525q13 178 -46 274t-182 96q-169 0 -313 -228t-167 -541q-13 -168 46.5 -263t176.5 -95z" />
    <glyph glyph-name="one" unicode="1" horiz-adv-x="796" 
d="M239 1010q154 60 284 135.5t283 147.5q13 6 38 1.5t13 -38.5q-31 -79 -72.5 -154t-74.5 -152l-197.5 -455.5l-202.5 -453.5q-10 -21 -34 -24q-39 -6 -78 -8.5t-77 5.5q-37 7 -20 37q72 138 157.5 276.5l164.5 273.5l147.5 265l144.5 269q12 22 0 40q-6 6 -24.5 -4
t-26.5 -13q-109 -51 -204.5 -102t-206.5 -93q-12 -5 -19 18.5t5 28.5z" />
    <glyph glyph-name="afii10023" unicode="&#x401;" horiz-adv-x="1804" 
d="M978 245q15 151 99 280.5t151 198.5q69 71 180 129t195 55q126 -6 178 -67.5t48 -152.5q-6 -104 -71.5 -228t-167.5 -231q-119 -125 -267 -189t-293 -76q-96 -7 -185 17t-143 86q-90 103 -116.5 215t-20.5 222q6 126 45.5 242.5t124.5 221.5q-119 4 -215 28
q-206 49 -339.5 176.5t-133.5 289.5q0 203 203.5 347.5t491.5 144.5q229 0 393 -86q28 -15 12 -37t-41 -9q-78 38 -170 62t-194 24q-253 0 -432 -129t-179 -309q0 -142 112.5 -254t288.5 -158q97 -26 260 -27q175 179 499 304q-14 15 -41 69.5t-19 131t77 167.5t248 181
q58 29 142.5 51t175.5 25q135 3 207.5 -74t48.5 -206q-38 -198 -250 -367.5t-566 -276.5q-159 -48 -358 -64q-109 -120 -140 -197l-51.5 -134t-41.5 -194q-9 -109 2.5 -223t89.5 -163q69 -45 174 -46q84 -2 162.5 24t141.5 54q31 13 170 125t211 223q20 30 44.5 97t26.5 135
t-30.5 119.5t-125.5 51.5q-60 0 -132.5 -29.5t-129.5 -70.5q-108 -79 -188 -223.5t-98 -286.5q-7 -45 -33 -39q-13 1 -22.5 19.5t-7.5 30.5zM1800 1897q-131 -32 -249 -111q-143 -96 -165 -234q-14 -87 35.5 -137t217.5 8q27 9 18 -19t-39 -36q-95 -27 -184 -58.5
t-167 -79.5q-135 -85 -244 -190q204 17 308 50q175 52 321 134.5t251 181.5q81 77 148 198t14 218q-42 75 -116.5 83.5t-148.5 -8.5zM1629 2176q95 0 78 -97q-20 -96 -116 -96q-97 0 -78 96q19 97 116 97zM2095 2190q95 0 78 -97q-20 -96 -116 -96q-97 0 -78 96
q19 97 116 97z" />
    <glyph glyph-name="afii10071" unicode="&#x451;" horiz-adv-x="835" 
d="M667 868q112 0 168 -67q46 -57 46.5 -142.5t-63.5 -151.5q-101 -103 -288 -143.5t-294 -30.5q-24 -78 -34.5 -143t5.5 -102q19 -45 104 -45q55 0 138 25q61 18 119 44.5t84 55.5q22 25 52.5 12t-5.5 -44q-83 -72 -188 -114t-192 -42q-112 0 -173.5 66t-69.5 176
q-14 203 114 375q104 140 265 215q120 56 212 56zM256 397q36 -6 140.5 -0.5t194.5 65.5q44 28 87.5 85t62.5 108q12 32 20.5 67.5t-5.5 60.5q-20 33 -79 33q-145 0 -263.5 -151.5t-157.5 -267.5zM508 1186q95 0 78 -97q-20 -96 -116 -96q-97 0 -78 96q19 97 116 97z
M974 1200q95 0 78 -97q-20 -96 -116 -96q-97 0 -78 96q19 97 116 97z" />
    <glyph glyph-name="afii61352" unicode="&#x2116;" horiz-adv-x="3664" 
d="M1076 9l259 661q109 273 172.5 480.5t69.5 309.5q16 259 -125.5 406.5t-397.5 147.5q-349 0 -622 -255.5t-296 -617.5q-17 -280 146.5 -498.5t501.5 -361.5l-27 -36q-345 150 -515.5 376.5t-152.5 516.5q24 381 312 648t658 267q304 0 483.5 -158t163.5 -414
q-12 -193 -331 -1052l-85 -225l253 413q733 1198 1057 1198q122 0 195 -66t66 -172q-3 -48 -18.5 -109t-41.5 -125l-439 -1135q-7 -22 -12 -42.5t-6 -43.5q-3 -44 19 -70t64 -26q58 0 131 58.5t155 171.5l40 -18q-100 -144 -186.5 -205.5t-189.5 -61.5q-81 0 -125.5 44.5
t-39.5 122.5q1 27 13 69t31 92l430 1119q24 63 36 109.5t14 83.5q5 74 -39 117t-124 43q-280 0 -1150 -1440l-194 -319q-18 -12 -36.5 -17.5t-47.5 -5.5q-33 0 -46.5 4.5t-22.5 15.5zM2949 1267q184 33 354 14.5t347 21.5l-20 -49q-184 -41 -348 -25.5t-366 -14.5z
M3312 1460q91 0 162.5 94.5t71.5 213.5q0 72 -36 111t-103 39q-92 0 -161.5 -92.5t-69.5 -219.5q0 -69 36.5 -107.5t99.5 -38.5zM3307 1440q-87 0 -141.5 55.5t-54.5 146.5q0 120 89 208.5t209 88.5q90 0 146 -55t56 -145q0 -122 -89 -210.5t-215 -88.5z" />
    <glyph glyph-name="quotedbl" unicode="&#x22;" horiz-adv-x="846" 
d="M678 871h-29l-12 453q-1 12 -1 23.5t1 21.5q5 47 26.5 70.5t59.5 23.5q37 0 54.5 -24.5t12.5 -69.5q0 -7 -1.5 -15.5t-6.5 -29.5zM356 871h-28l-15 453q-1 12 -1 23.5t1 21.5q5 46 27.5 70t60.5 24q37 0 54 -24t12 -70q0 -6 -2 -15.5l-6 -28.5z" />
  </font>
</defs>
</svg>
